<?xml version="1.0" encoding="utf-8"?>
<!-- Generator: Adobe Illustrator 16.0.4, SVG Export Plug-In . SVG Version: 6.00 Build 0)  -->
<!DOCTYPE svg PUBLIC "-//W3C//DTD SVG 1.1//EN" "http://www.w3.org/Graphics/SVG/1.1/DTD/svg11.dtd">
<svg version="1.1" id="Layer_1" xmlns="http://www.w3.org/2000/svg" xmlns:xlink="http://www.w3.org/1999/xlink" x="0px" y="0px"
	 width="504px" height="944px" viewBox="0 0 504 944" enable-background="new 0 0 504 944" xml:space="preserve">
<rect x="1.75" y="470.25" fill="#E1E1E1" width="500" height="2"/>
<path fill="#E1E1E1" d="M251.75,413.25c31.98,0,58,26.018,58,57.999s-26.02,58.001-58,58.001c-31.981,0-58-26.02-58-58.001
	S219.769,413.25,251.75,413.25 M251.75,411.25c-33.137,0-60,26.863-60,59.999c0,33.138,26.863,60.001,60,60.001s60-26.863,60-60.001
	C311.75,438.113,284.887,411.25,251.75,411.25L251.75,411.25z"/>
<path fill="#E1E1E1" d="M252,453.25c9.925,0,18,8.074,18,17.999c0,9.926-8.075,18.001-18,18.001s-18-8.075-18-18.001
	C234,461.324,242.075,453.25,252,453.25 M252,451.25c-11.046,0-20,8.954-20,19.999c0,11.046,8.954,20.001,20,20.001
	s20-8.955,20-20.001C272,460.204,263.046,451.25,252,451.25L252,451.25z"/>
<g>
	<rect x="221.75" y="39.25" fill="#E1E1E1" width="60" height="2"/>
	<path fill="#E1E1E1" d="M252,59.25c-4.963,0-9-4.037-9-9s4.037-9,9-9s9,4.037,9,9S256.963,59.25,252,59.25z M252,43.368
		c-3.795,0-6.882,3.087-6.882,6.882s3.087,6.882,6.882,6.882s6.882-3.087,6.882-6.882S255.795,43.368,252,43.368z"/>
	<rect x="171.75" y="2" fill="#E1E1E1" width="2" height="190"/>
	<rect x="191.75" y="2" fill="#E1E1E1" width="2" height="190"/>
	<rect x="309.75" y="2" fill="#E1E1E1" width="2" height="190"/>
	<rect x="329.75" y="2" fill="#E1E1E1" width="2" height="190"/>
	<rect x="171.75" y="190" fill="#E1E1E1" width="160" height="2"/>
	<path fill="#E1E1E1" d="M33.75,141.25"/>
	<g>
		<g>
			<path fill="#E1E1E1" d="M294.044,151.311l1.458-1.369c-0.986-1.05-2.009-2.065-3.068-3.042l0,0
				c-0.039-0.036-0.078-0.071-0.117-0.107l-0.002-0.002c-0.004-0.004-0.008-0.008-0.013-0.012l-0.001-0.001
				c-0.004-0.004-0.009-0.008-0.014-0.013h-0.001c-0.029-0.027-0.058-0.053-0.087-0.08c-0.002-0.001,0,0-0.002-0.001
				c-0.004-0.004-0.008-0.008-0.014-0.012v-0.001c-0.009-0.004-0.014-0.008-0.018-0.012l-0.001-0.001
				c-0.034-0.031-0.063-0.062-0.104-0.093v-0.001c-0.007-0.004-0.011-0.008-0.016-0.012l-0.002-0.002
				c-0.004-0.004-0.009-0.008-0.014-0.012l-0.002-0.001c-0.004-0.004-0.008-0.008-0.015-0.012c0-0.001,0,0-0.003-0.002
				c-0.005-0.004-0.01-0.008-0.014-0.012l0,0c-0.022-0.021-0.049-0.043-0.071-0.065c-0.002-0.001-0.002-0.001-0.004-0.002
				c-0.004-0.004-0.008-0.007-0.012-0.011c-0.001-0.001-0.003-0.002-0.005-0.003c-0.004-0.003-0.008-0.007-0.012-0.01
				c-0.002-0.001-0.004-0.003-0.004-0.004c-0.005-0.003-0.009-0.007-0.013-0.01c0-0.001-0.002-0.002-0.004-0.003
				c-0.004-0.003-0.009-0.007-0.013-0.01c0-0.001-0.002-0.002-0.004-0.004c-0.004-0.003-0.009-0.007-0.013-0.01l0,0
				c-0.016-0.012-0.026-0.025-0.041-0.037c-0.002-0.001-0.002-0.002-0.005-0.003c-0.004-0.003-0.009-0.006-0.013-0.009
				c-0.001-0.001-0.003-0.003-0.005-0.004c-0.002-0.003-0.008-0.006-0.01-0.009c-0.002-0.001-0.006-0.004-0.008-0.005
				c-0.005-0.003-0.007-0.005-0.011-0.008c-0.002-0.002-0.002-0.003-0.006-0.005c-0.002-0.003-0.007-0.006-0.011-0.009
				c0-0.001-0.006-0.004-0.006-0.006c-0.004-0.002-0.007-0.005-0.011-0.008c0-0.001-0.004-0.005-0.007-0.006
				c-0.002-0.003-0.007-0.006-0.009-0.008c-0.005-0.002-0.005-0.003-0.007-0.005c-0.014-0.011-0.022-0.022-0.036-0.033l-0.005-0.003
				c-0.002-0.003-0.008-0.006-0.01-0.009c-0.002-0.001-0.004-0.004-0.008-0.006c-0.003-0.002-0.007-0.005-0.011-0.008
				c-0.002-0.002-0.004-0.003-0.006-0.006c-0.004-0.002-0.007-0.005-0.011-0.008c-0.002-0.003-0.004-0.003-0.008-0.006
				c-0.002-0.003-0.007-0.006-0.009-0.009c-0.004-0.002-0.004-0.003-0.006-0.005c-0.005-0.003-0.007-0.005-0.012-0.008
				c0-0.001-0.005-0.005-0.007-0.006c-0.004-0.003-0.008-0.006-0.01-0.008c-0.004-0.002-0.002-0.002-0.006-0.004
				c-0.015-0.011-0.023-0.022-0.037-0.034l-0.004-0.002c-0.005-0.003-0.009-0.007-0.013-0.011c-0.002-0.001-0.004-0.002-0.004-0.003
				c-0.004-0.003-0.009-0.007-0.013-0.01c0-0.001-0.004-0.003-0.004-0.005c-0.004-0.003-0.009-0.006-0.013-0.008
				c-0.002-0.003-0.002-0.003-0.006-0.006c-0.002-0.003-0.007-0.005-0.009-0.008c-0.004-0.003-0.008-0.004-0.01-0.007
				c-0.004-0.003-0.006-0.005-0.008-0.007c-0.002-0.001-0.006-0.005-0.008-0.006c-0.005-0.002-0.009-0.005-0.011-0.008
				c-0.004-0.003-0.006-0.004-0.008-0.007c-0.007-0.004-0.013-0.009-0.017-0.013c-0.003-0.002-0.007-0.005-0.011-0.007
				c-0.002-0.002-0.006-0.005-0.008-0.008c-0.002-0.002-0.004-0.004-0.009-0.006c-0.002-0.002-0.004-0.004-0.01-0.007
				c-0.002-0.002-0.004-0.005-0.008-0.007c-0.002-0.002-0.004-0.004-0.006-0.006c-0.005-0.002-0.009-0.006-0.013-0.008
				c-0.002-0.002-0.005-0.003-0.007-0.005s-0.006-0.006-0.01-0.009c-0.002-0.002-0.005-0.004-0.007-0.006
				c-0.004-0.002-0.006-0.006-0.01-0.008c-0.002-0.002-0.004-0.004-0.008-0.006c-0.002-0.002-0.007-0.006-0.009-0.008
				s-0.008-0.004-0.01-0.006c-0.004-0.004-0.008-0.007-0.012-0.011c0-0.001-0.003-0.001-0.003-0.002
				c-0.006-0.005-0.012-0.008-0.019-0.013c-0.002-0.002-0.006-0.005-0.008-0.007c-0.005-0.002-0.009-0.005-0.011-0.008
				c-0.002-0.002-0.004-0.004-0.008-0.006c-0.002-0.002-0.006-0.006-0.011-0.008c-0.002-0.002-0.004-0.003-0.006-0.005
				s-0.01-0.007-0.012-0.009c-0.002-0.001-0.004-0.003-0.006-0.005s-0.007-0.005-0.009-0.008c-0.002-0.002-0.006-0.004-0.009-0.006
				c-0.004-0.003-0.008-0.006-0.01-0.008s-0.004-0.004-0.007-0.006c-0.004-0.002-0.008-0.007-0.012-0.009
				c-0.002-0.001-0.004-0.003-0.006-0.004c-0.004-0.004-0.009-0.007-0.015-0.011c0-0.001-0.002-0.002-0.002-0.003
				c-0.008-0.005-0.014-0.009-0.018-0.014c-0.002-0.001-0.005-0.002-0.005-0.003c-0.004-0.004-0.009-0.007-0.015-0.011
				c0-0.001-0.002-0.002-0.006-0.004c-0.005-0.003-0.009-0.007-0.013-0.011c-0.002-0.001-0.002-0.003-0.004-0.004
				c-0.004-0.002-0.01-0.007-0.013-0.009c-0.002-0.002-0.004-0.003-0.006-0.005c-0.004-0.002-0.01-0.006-0.014-0.009
				c-0.002-0.002-0.004-0.004-0.006-0.006c-0.004-0.003-0.008-0.006-0.011-0.009c-0.002-0.002-0.005-0.003-0.007-0.005
				c-0.004-0.004-0.008-0.006-0.012-0.01c0-0.001-0.003-0.003-0.007-0.005c-0.004-0.003-0.01-0.008-0.014-0.011
				c0-0.001-0.002-0.002-0.002-0.002c-0.009-0.005-0.013-0.009-0.019-0.014c-0.004-0.001-0.004-0.002-0.006-0.003
				c-0.004-0.003-0.01-0.008-0.014-0.012c-0.002-0.001-0.002-0.001-0.004-0.002c-0.006-0.003-0.01-0.008-0.014-0.011
				c-0.002-0.001-0.004-0.002-0.004-0.004c-0.005-0.004-0.009-0.007-0.015-0.011c-0.002-0.001-0.004-0.002-0.004-0.003
				c-0.004-0.002-0.011-0.008-0.013-0.011c-0.002-0.001-0.004-0.002-0.006-0.003c-0.006-0.005-0.008-0.007-0.016-0.012
				c0,0,0-0.001-0.002-0.002c-0.006-0.005-0.012-0.009-0.016-0.014l0,0c-0.021-0.02-0.047-0.039-0.068-0.058c0,0,0,0,0-0.001
				c-0.006-0.005-0.012-0.008-0.02-0.014v-0.001c-0.006-0.005-0.01-0.008-0.017-0.013c0,0,0-0.001-0.002-0.002
				c-0.004-0.005-0.01-0.008-0.017-0.013l-0.002-0.001c-0.006-0.005-0.012-0.009-0.018-0.014l0,0
				c-0.021-0.02-0.045-0.039-0.066-0.058c0,0,0,0-0.002-0.001c-0.006-0.005-0.01-0.009-0.016-0.014l0,0
				c-0.008-0.005-0.012-0.009-0.018-0.014l-0.002-0.001c-0.006-0.005-0.014-0.009-0.018-0.014l0,0
				c-0.041-0.034-0.08-0.067-0.121-0.102l0,0c-0.859-0.731-1.746-1.439-2.646-2.122l-1.205,1.596
				C289.311,146.681,291.787,148.907,294.044,151.311z"/>
			<path fill="#E1E1E1" d="M279.223,137.645c-2.921-1.507-5.979-2.781-9.158-3.798h-0.002c-0.051-0.016-0.101-0.032-0.147-0.048
				l-0.002-0.001c-0.011-0.001-0.017-0.003-0.021-0.005c0,0,0,0-0.002,0c-0.007-0.002-0.013-0.004-0.019-0.006h-0.001
				c-0.031-0.01-0.062-0.02-0.096-0.03c0,0,0,0-0.002,0c-0.004-0.002-0.014-0.003-0.02-0.005h-0.002l-0.604,1.908
				c3.145,0.987,6.223,2.254,9.148,3.766L279.223,137.645z"/>
			<path fill="#E1E1E1" d="M311.604,186.779c-0.236-3.46-0.771-6.842-1.576-10.116l-1.939,0.477
				c0.783,3.192,1.295,6.481,1.523,9.777L311.604,186.779z"/>
			<path fill="#E1E1E1" d="M306.743,166.967c-0.001-0.002-0.001-0.002-0.002-0.004c-0.003-0.004-0.005-0.009-0.007-0.014v-0.004
				c-0.012-0.022-0.021-0.045-0.03-0.068c-0.001-0.001-0.001-0.002-0.002-0.003c-0.002-0.005-0.005-0.01-0.007-0.015
				c0-0.002,0-0.003-0.002-0.005c-0.002-0.004-0.004-0.009-0.006-0.014c0-0.001,0-0.003-0.004-0.005
				c-0.002-0.004-0.004-0.009-0.008-0.013c0-0.002-0.001-0.004-0.002-0.006c-0.002-0.004-0.004-0.009-0.006-0.014
				c0-0.001,0-0.002-0.001-0.004c-0.002-0.005-0.004-0.01-0.007-0.015l-0.001-0.002c-0.015-0.023-0.021-0.046-0.03-0.069
				c-0.001-0.002-0.001-0.002-0.002-0.003c-0.002-0.005-0.004-0.01-0.006-0.015c-0.001-0.001-0.001-0.002-0.002-0.004
				c-0.002-0.005-0.006-0.009-0.008-0.014c-0.004-0.002-0.004-0.004-0.004-0.006c-0.002-0.004-0.004-0.009-0.006-0.014
				c-0.002-0.001,0-0.001-0.002-0.003c-0.002-0.005-0.005-0.011-0.007-0.016c-0.011-0.024-0.021-0.049-0.032-0.073v-0.001
				c-0.002-0.005-0.004-0.011-0.006-0.016c0-0.001,0-0.001-0.002-0.003c-0.002-0.005-0.004-0.01-0.006-0.015
				c-0.001-0.002-0.001-0.003-0.002-0.005c-0.002-0.005-0.004-0.01-0.006-0.015c-0.001-0.002-0.001-0.002-0.001-0.004
				c-0.002-0.005-0.005-0.01-0.007-0.016l-0.002-0.002c-0.014-0.03-0.025-0.059-0.039-0.088l-0.002-0.002
				c-0.002-0.005-0.006-0.01-0.008-0.015c0-0.002-0.002-0.003-0.002-0.005c-0.002-0.004-0.004-0.009-0.008-0.014
				c-0.002-0.001-0.002-0.002-0.003-0.004c-0.002-0.005-0.005-0.01-0.007-0.015c-0.001-0.002-0.001-0.001-0.001-0.003
				c-0.021-0.035-0.032-0.07-0.048-0.105c-0.001-0.001-0.001-0.001-0.001-0.003c-0.003-0.005-0.009-0.01-0.011-0.015l-0.002-0.004
				c-0.002-0.005-0.004-0.01-0.008-0.015c0-0.002,0-0.002-0.002-0.004c-0.002-0.005-0.004-0.01-0.007-0.015
				c0-0.001,0-0.001-0.001-0.002c-0.002-0.005-0.005-0.011-0.007-0.016v-0.001c-0.011-0.023-0.021-0.046-0.032-0.069
				c0-0.001-0.001-0.003-0.002-0.004c-0.002-0.005-0.004-0.009-0.006-0.014c-0.001-0.001-0.001-0.003-0.002-0.005
				c-0.002-0.004-0.004-0.009-0.006-0.014c-0.002-0.001-0.002-0.003-0.002-0.005c-0.003-0.005-0.006-0.009-0.01-0.014
				c0-0.002,0-0.002-0.002-0.004c-0.002-0.005-0.004-0.01-0.007-0.015l-0.003-0.003c-0.01-0.023-0.021-0.045-0.029-0.068v-0.003
				c-0.002-0.005-0.004-0.009-0.006-0.014c-0.004-0.002-0.004-0.003-0.004-0.005c-0.002-0.004-0.004-0.009-0.007-0.014
				c-0.001-0.002-0.001-0.003-0.002-0.005c-0.002-0.005-0.004-0.01-0.006-0.015c-0.001-0.001-0.001-0.002-0.002-0.004
				c-0.002-0.004-0.005-0.009-0.009-0.014c0-0.002-0.002-0.004-0.004-0.005c-0.002-0.005-0.004-0.01-0.006-0.015l0,0
				c-0.008-0.017-0.015-0.034-0.021-0.05c-0.001-0.002-0.001-0.003-0.002-0.005c-0.002-0.004-0.005-0.008-0.007-0.012
				c-0.003-0.002-0.005-0.005-0.005-0.006c-0.003-0.004-0.005-0.009-0.007-0.013c-0.002-0.001-0.002-0.004-0.004-0.006
				c-0.002-0.004-0.004-0.008-0.006-0.013c0-0.003,0-0.002-0.002-0.006c-0.002-0.004-0.004-0.009-0.006-0.013
				c0-0.002-0.001-0.004-0.002-0.006c-0.002-0.004-0.004-0.009-0.006-0.014c-0.002-0.002-0.002-0.002-0.002-0.003
				c-0.012-0.022-0.021-0.045-0.031-0.067l-0.001-0.003c-0.002-0.005-0.004-0.009-0.007-0.013c0-0.002-0.002-0.004-0.002-0.006
				c-0.004-0.004-0.006-0.008-0.008-0.013c-0.002-0.003-0.002-0.003-0.004-0.007c0-0.004-0.002-0.008-0.004-0.012
				c-0.002-0.003-0.002-0.004-0.005-0.007c-0.003-0.004-0.005-0.008-0.007-0.013c-0.001-0.001-0.002-0.004-0.002-0.005
				c-0.002-0.004-0.004-0.009-0.006-0.014c-0.001-0.001-0.001-0.003-0.002-0.004c-0.012-0.017-0.02-0.033-0.021-0.05l0,0
				c-0.004-0.005-0.006-0.009-0.008-0.014c-0.002-0.001-0.003-0.004-0.003-0.005c-0.002-0.004-0.004-0.009-0.006-0.013
				c0-0.002-0.002-0.005-0.003-0.006c-0.002-0.004-0.004-0.008-0.009-0.012c0-0.003,0-0.004-0.003-0.008
				c-0.002-0.004-0.004-0.008-0.006-0.012c-0.002-0.001-0.002-0.005-0.004-0.007c-0.002-0.004-0.004-0.008-0.006-0.012
				c0-0.002-0.002-0.005-0.002-0.007c-0.002-0.004-0.004-0.008-0.007-0.012c-0.002-0.003-0.002-0.003-0.003-0.007
				c-0.004-0.01-0.012-0.02-0.016-0.029c-0.002-0.002,0,0.001,0-0.001c-0.002-0.004-0.004-0.009-0.006-0.014
				c-0.002-0.001-0.002-0.003-0.002-0.005c-0.002-0.004-0.004-0.009-0.008-0.013c-0.002-0.002-0.002-0.005-0.004-0.006
				c-0.002-0.004-0.004-0.008-0.006-0.012c-0.002-0.003-0.002-0.005-0.004-0.008c-0.002-0.003-0.004-0.007-0.004-0.011
				c-0.002-0.003-0.002-0.005-0.007-0.008c-0.002-0.003-0.002-0.007-0.004-0.011c0-0.002-0.005-0.007-0.007-0.008
				c-0.002-0.004-0.002-0.008-0.004-0.011c0-0.002-0.004-0.007-0.004-0.009c-0.002-0.003-0.004-0.006-0.004-0.009
				c-0.002-0.005-0.004-0.008-0.008-0.013c-0.002-0.005-0.006-0.011-0.008-0.016c-0.002-0.003-0.004-0.005-0.006-0.009
				s-0.002-0.008-0.004-0.011c-0.002-0.002-0.004-0.006-0.004-0.007c-0.002-0.004-0.004-0.007-0.004-0.011
				c-0.002-0.003-0.004-0.006-0.004-0.009c-0.003-0.003-0.006-0.006-0.008-0.01s-0.002-0.005-0.004-0.009
				c0-0.003-0.002-0.007-0.006-0.01c0-0.003-0.002-0.006-0.004-0.01c0-0.003-0.003-0.007-0.005-0.01
				c0-0.002-0.004-0.007-0.007-0.009c0-0.003-0.002-0.006-0.004-0.01c-0.002-0.003-0.004-0.007-0.006-0.01
				c-0.002-0.007-0.006-0.014-0.01-0.021c-0.004-0.003,0-0.003-0.004-0.006c-0.002-0.004-0.004-0.007-0.006-0.011
				c0-0.002-0.002-0.007-0.004-0.009c-0.002-0.003-0.004-0.007-0.006-0.01c0-0.003-0.002-0.005-0.004-0.008
				c-0.002-0.004-0.004-0.008-0.006-0.012c0-0.003-0.002-0.004-0.002-0.008c-0.003-0.003-0.006-0.007-0.008-0.011
				c0-0.003-0.002-0.005-0.004-0.009c0-0.003-0.002-0.007-0.004-0.01c-0.002-0.003-0.004-0.007-0.007-0.011
				c-0.002-0.002-0.002-0.005-0.004-0.008c-0.003-0.005-0.005-0.007-0.009-0.012c0-0.003-0.002-0.006-0.004-0.008
				c-0.002-0.007-0.004-0.012-0.01-0.019c0-0.002-0.002-0.004-0.002-0.007c-0.004-0.005-0.006-0.007-0.008-0.012
				c-0.002-0.003-0.004-0.005-0.004-0.008c-0.002-0.005-0.004-0.007-0.008-0.012c0-0.002-0.002-0.005-0.004-0.008
				c0-0.003-0.002-0.008-0.004-0.011c-0.002-0.002-0.004-0.006-0.004-0.008c-0.002-0.003-0.004-0.009-0.008-0.012
				c-0.002-0.002-0.002-0.004-0.004-0.007c0-0.003-0.004-0.01-0.006-0.013c0-0.002-0.002-0.004-0.002-0.006
				c-0.002-0.005-0.007-0.01-0.009-0.015c0-0.001,0-0.003-0.002-0.005c-0.009-0.014-0.015-0.026-0.021-0.04l0,0
				c-0.004-0.007-0.006-0.012-0.01-0.019c0-0.001,0-0.002-0.002-0.004c-0.003-0.005-0.005-0.01-0.009-0.016
				c0-0.001,0-0.003-0.003-0.005c-0.002-0.003-0.006-0.011-0.008-0.015c0-0.002-0.002-0.004-0.002-0.006
				c-0.002-0.003-0.008-0.011-0.01-0.015c0-0.001,0-0.003-0.002-0.004c-0.002-0.007-0.006-0.01-0.01-0.017c0-0.001,0-0.002,0-0.003
				c-0.014-0.027-0.021-0.052-0.039-0.08c0-0.001-0.002-0.002-0.002-0.004c-0.002-0.005-0.006-0.011-0.008-0.016
				c0-0.001-0.002-0.002-0.002-0.004c-0.002-0.005-0.008-0.01-0.01-0.016c0-0.001-0.002-0.003-0.002-0.004
				c-0.004-0.007-0.006-0.01-0.008-0.017c0-0.001-0.002-0.002-0.002-0.003c-0.002-0.007-0.006-0.011-0.011-0.018v-0.001
				c-0.011-0.021-0.021-0.04-0.028-0.06c0-0.001,0-0.002-0.002-0.002c-0.002-0.007-0.006-0.011-0.011-0.018c0-0.001,0-0.002,0-0.003
				c-0.004-0.007-0.007-0.01-0.009-0.017c0-0.001-0.002-0.002-0.002-0.003c-0.004-0.007-0.004-0.009-0.01-0.016
				c0-0.001,0-0.003-0.002-0.004c-0.004-0.007-0.006-0.01-0.01-0.017c0-0.001,0-0.001-0.002-0.002
				c-0.014-0.027-0.023-0.053-0.039-0.081l0,0c-0.004-0.007-0.008-0.012-0.012-0.019c0,0,0-0.001-0.002-0.002
				c-0.002-0.007-0.006-0.011-0.008-0.018c0-0.001,0-0.001-0.002-0.002c-0.002-0.007-0.006-0.012-0.01-0.018
				c0-0.001-0.002-0.001-0.002-0.002c-0.025-0.054-0.054-0.108-0.082-0.162c-0.021-0.041-0.041-0.081-0.062-0.122
				c-0.589-1.161-1.216-2.301-1.875-3.417l0,0c-0.009-0.013-0.018-0.025-0.021-0.039l0,0c-0.018-0.026-0.03-0.051-0.047-0.077
				c0,0,0,0,0-0.001c-0.004-0.006-0.008-0.011-0.014-0.018c0,0,0-0.001,0-0.002c-0.004-0.006-0.007-0.01-0.011-0.016
				c0-0.001-0.002-0.003-0.002-0.004c-0.005-0.006-0.007-0.009-0.011-0.015c0-0.001,0-0.002-0.002-0.003
				c-0.004-0.006-0.004-0.01-0.009-0.016c0-0.001-0.002-0.001-0.004-0.002c-0.012-0.02-0.021-0.038-0.032-0.058c0,0,0,0,0-0.001
				c-0.005-0.006-0.007-0.01-0.011-0.017c-0.002-0.001-0.002-0.003-0.004-0.005c-0.003-0.005-0.006-0.009-0.01-0.014
				c0-0.002-0.002-0.003-0.002-0.005c-0.003-0.003-0.009-0.011-0.011-0.014c0-0.002-0.002-0.004-0.002-0.005
				c-0.002-0.003-0.006-0.011-0.008-0.015c-0.002-0.001-0.002-0.002-0.002-0.004c-0.004-0.004-0.008-0.01-0.012-0.015
				c0-0.001-0.003-0.003-0.003-0.004c-0.004-0.006-0.009-0.012-0.013-0.018c-0.004-0.007-0.008-0.013-0.013-0.019
				c0-0.001,0-0.002-0.002-0.004c-0.002-0.005-0.006-0.01-0.01-0.015c-0.001-0.002-0.003-0.005-0.006-0.007
				c-0.003-0.003-0.005-0.007-0.007-0.01s-0.002-0.006-0.004-0.009s-0.004-0.007-0.006-0.01c-0.002-0.003-0.004-0.005-0.006-0.008
				s-0.004-0.008-0.006-0.011c-0.002-0.002-0.004-0.005-0.007-0.008c-0.002-0.003-0.004-0.008-0.009-0.011
				c0-0.002-0.002-0.005-0.004-0.007c-0.002-0.003-0.004-0.006-0.006-0.009c-0.002-0.003-0.004-0.006-0.007-0.01
				c0-0.001,0-0.002-0.002-0.003c-0.006-0.01-0.012-0.02-0.019-0.029c-0.001-0.001,0,0-0.001-0.002
				c-0.005-0.004-0.007-0.008-0.009-0.012c-0.002-0.001-0.004-0.004-0.004-0.006c-0.002-0.004-0.006-0.008-0.008-0.012
				c0-0.001-0.002-0.003-0.002-0.005c-0.004-0.004-0.006-0.008-0.01-0.012c0-0.002-0.003-0.004-0.003-0.006
				c-0.003-0.004-0.006-0.008-0.009-0.011c-0.002-0.002-0.004-0.005-0.004-0.007c-0.002-0.003-0.006-0.008-0.008-0.011
				c-0.002-0.002-0.002-0.004-0.004-0.005c-0.003-0.004-0.005-0.009-0.009-0.013v-0.002c-0.015-0.022-0.024-0.043-0.041-0.065
				v-0.001c-0.002-0.005-0.006-0.011-0.011-0.016c0-0.002,0,0,0-0.002c-0.004-0.005-0.007-0.01-0.012-0.015l-0.002-0.003
				c-0.002-0.005-0.006-0.01-0.01-0.015c0-0.001,0,0,0-0.002c-0.356-0.584-0.728-1.161-1.104-1.732l-1.668,1.103
				c1.818,2.753,3.408,5.678,4.729,8.692L306.743,166.967z"/>
			<path fill="#E1E1E1" d="M215.134,146.017l-1.264-1.55c-1.641,1.337-3.209,2.759-4.699,4.26c-0.001,0.001,0,0-0.001,0.001
				c-0.004,0.004-0.008,0.008-0.012,0.012c-0.001,0.001-0.001,0.001-0.003,0.002c-0.004,0.004-0.008,0.008-0.012,0.012l-0.002,0.002
				c-0.004,0.004-0.008,0.008-0.012,0.012c-0.001,0.001-0.002,0.002-0.003,0.003c-0.004,0.004-0.007,0.008-0.012,0.012l0,0
				c-0.022,0.023-0.045,0.045-0.067,0.068c-0.001,0.001-0.002,0.002-0.003,0.003c-0.003,0.004-0.007,0.007-0.011,0.011
				c-0.001,0.001-0.003,0.003-0.004,0.004c-0.003,0.003-0.006,0.007-0.009,0.01s-0.003,0.003-0.005,0.005
				c-0.003,0.003-0.007,0.007-0.01,0.01c-0.001,0.001-0.003,0.003-0.004,0.004c-0.003,0.003-0.007,0.007-0.01,0.01
				c-0.001,0.001-0.003,0.003-0.004,0.004c-0.017,0.017-0.033,0.033-0.049,0.05c-0.001,0.001-0.003,0.003-0.005,0.005
				c-0.003,0.003-0.006,0.006-0.009,0.009c-0.001,0.001-0.005,0.005-0.006,0.006c-0.003,0.002-0.005,0.005-0.008,0.008
				c-0.003,0.003-0.005,0.005-0.008,0.008s-0.005,0.005-0.007,0.007c-0.002,0.003-0.004,0.005-0.007,0.007
				c-0.002,0.003-0.005,0.005-0.008,0.008c-0.002,0.002-0.004,0.004-0.007,0.007c-0.002,0.002-0.005,0.005-0.007,0.008
				c-0.001,0.001-0.006,0.006-0.008,0.008s-0.005,0.005-0.007,0.007c-0.003,0.002-0.005,0.005-0.008,0.008
				c-0.006,0.006-0.012,0.012-0.018,0.018c-0.001,0.001-0.002,0.002-0.003,0.003c-0.002,0.003-0.005,0.006-0.008,0.009
				c-0.002,0.002-0.004,0.004-0.006,0.007c-0.002,0.002-0.004,0.004-0.007,0.007c-0.003,0.003-0.006,0.006-0.009,0.009
				c-0.002,0.002-0.004,0.004-0.006,0.006s-0.007,0.007-0.009,0.009s-0.004,0.004-0.006,0.006s-0.007,0.007-0.009,0.01
				c-0.002,0.002-0.004,0.004-0.006,0.006c-0.002,0.003-0.007,0.007-0.01,0.01c-0.001,0.001-0.003,0.003-0.005,0.005
				c-0.004,0.004-0.008,0.008-0.012,0.012c-0.001,0.001-0.002,0.002-0.003,0.003c-0.011,0.011-0.02,0.021-0.031,0.032
				c0,0,0,0-0.001,0.001c-0.005,0.005-0.009,0.01-0.015,0.015c0,0,0,0-0.001,0.001c-0.005,0.005-0.009,0.009-0.014,0.014
				c-0.001,0.001-0.002,0.002-0.003,0.002c-0.005,0.006-0.007,0.008-0.013,0.013c-0.001,0.001-0.002,0.002-0.003,0.003
				c-0.005,0.005-0.007,0.007-0.012,0.012c-0.001,0.001-0.002,0.002-0.003,0.003c-0.005,0.005-0.008,0.008-0.014,0.014
				c0,0,0,0.001-0.001,0.001c-0.026,0.027-0.052,0.053-0.078,0.081l0,0c-0.005,0.005-0.01,0.01-0.015,0.016l0,0
				c-0.005,0.005-0.01,0.01-0.015,0.015l-0.001,0.001c-0.682,0.709-1.346,1.434-1.993,2.176l1.508,1.314
				C210.186,150.415,212.579,148.099,215.134,146.017z"/>
			<path fill="#E1E1E1" d="M202.171,160.884l-1.708-1.04c-1.768,2.903-3.295,5.968-4.556,9.168l1.861,0.733
				C198.974,166.684,200.456,163.702,202.171,160.884z"/>
			<path fill="#E1E1E1" d="M194.945,179.228l-1.958-0.403c-0.145,0.699-0.276,1.4-0.396,2.108c0,0,0,0,0,0.001
				c-0.007,0.039-0.013,0.076-0.02,0.114c0,0.001,0,0.002,0,0.003c-0.001,0.008-0.001,0.011-0.003,0.019
				c0,0.001,0,0.003-0.001,0.004c-0.001,0.008-0.001,0.011-0.003,0.018c0,0.001,0,0.003,0,0.004
				c-0.001,0.008-0.002,0.013-0.003,0.021v0.001c-0.001,0.008-0.002,0.015-0.003,0.022c0,0.001,0,0.002-0.001,0.004
				c-0.001,0.005-0.002,0.012-0.003,0.018c0,0.002,0,0.004-0.001,0.006c0,0.004-0.002,0.012-0.002,0.016
				c0,0.002-0.001,0.005-0.001,0.007c-0.001,0.004-0.002,0.01-0.002,0.014c0,0.003-0.001,0.005-0.001,0.008
				c0,0.004-0.002,0.011-0.002,0.015c0,0.002-0.001,0.005-0.001,0.007c-0.001,0.008-0.002,0.014-0.003,0.021
				c0,0.001,0,0.002-0.001,0.004c-0.001,0.006-0.002,0.012-0.003,0.018c0,0.002,0,0.004-0.001,0.007c0,0.004-0.001,0.01-0.002,0.014
				c0,0.003-0.001,0.006-0.001,0.009c0,0.004-0.001,0.01-0.002,0.014c0,0.003-0.001,0.005-0.001,0.008
				c0,0.004-0.001,0.009-0.002,0.013c0,0.003-0.001,0.006-0.001,0.01c-0.001,0.003-0.001,0.007-0.002,0.011
				c-0.001,0.007-0.002,0.014-0.003,0.021c0,0.004-0.001,0.006-0.001,0.01s-0.001,0.008-0.002,0.013
				c0,0.002-0.001,0.006-0.001,0.008c0,0.004-0.001,0.009-0.002,0.013c0,0.004-0.001,0.004-0.001,0.008
				c0,0.005-0.001,0.009-0.002,0.013c0,0.004-0.001,0.004-0.001,0.008s-0.001,0.008-0.002,0.013c0,0.002-0.001,0.005-0.001,0.007
				c-0.003,0.018-0.006,0.035-0.009,0.053v0.001c-0.001,0.005-0.001,0.01-0.002,0.016c0,0.002,0,0.004-0.001,0.006
				c-0.001,0.005-0.001,0.01-0.002,0.016v0.004c-0.001,0.005-0.002,0.011-0.003,0.017c0,0.002,0,0.001,0,0.003
				c-0.005,0.032-0.01,0.063-0.015,0.095v0.001c-0.001,0.006-0.001,0.013-0.002,0.019c0,0.002,0,0,0,0.002
				c-0.255,1.643-0.444,3.309-0.562,4.994c0,0.007-0.001,0.014-0.001,0.02l0,0c-0.002,0.026-0.003,0.053-0.005,0.08v0.001
				c0,0.006-0.001,0.012-0.001,0.019v0.003c0,0.006-0.001,0.011-0.001,0.018c0,0.002,0,0.001,0,0.003
				c-0.002,0.026-0.003,0.051-0.005,0.077v0.002c0,0.006-0.001,0.012-0.001,0.017c0,0.002,0,0.002,0,0.004
				c0,0.005-0.001,0.011-0.001,0.016c0,0.002,0,0.004,0,0.006c0,0.005-0.001,0.01-0.001,0.015c0,0.002,0,0.004,0,0.006
				c0,0.005,0,0.011-0.001,0.016c0,0.002,0-0.001,0,0c-0.001,0.011-0.001,0.022-0.002,0.033c0,0.002,0,0.006,0,0.008
				c0,0.004,0,0.009,0,0.013c0,0.002,0,0.007-0.001,0.009c0,0.004,0,0.008,0,0.012s0,0.006,0,0.01c0,0.004-0.001,0.008-0.001,0.013
				c0,0.002,0,0.007,0,0.009c0,0.004,0,0.009-0.001,0.013c0,0.002,0,0.006,0,0.008c0,0.008-0.001,0.017-0.001,0.025
				c0,0.004,0,0.005-0.001,0.009c0,0.004,0,0.007,0,0.011s0,0.008,0,0.012c0,0.003,0,0.007-0.001,0.01c0,0.004,0,0.008,0,0.012
				c0,0.003,0,0.007-0.001,0.01c0,0.004,0,0.008,0,0.012c0,0.003,0,0.006,0,0.01s-0.001,0.011-0.001,0.015c0,0.002,0,0.005,0,0.007
				c0,0.008-0.001,0.014-0.001,0.022c0,0.001,0,0.002,0,0.003c0,0.008-0.001,0.011-0.001,0.019c0,0.002,0,0.005,0,0.007
				c0,0.004,0,0.011,0,0.015c0,0.002,0,0.005,0,0.008c0,0.004-0.001,0.012-0.001,0.016c0,0.002,0,0.004,0,0.006
				c0,0.006-0.001,0.013-0.001,0.019c0,0.001,0,0.003,0,0.004c-0.001,0.016-0.002,0.031-0.002,0.046c0,0,0,0.001,0,0.002
				c0,0.008,0,0.013-0.001,0.021c0,0.001,0,0.002,0,0.003c0,0.008,0,0.012-0.001,0.02c0,0.001,0,0.002,0,0.004
				c0,0.008-0.001,0.012-0.001,0.02c0,0.001,0,0.002,0,0.003c-0.001,0.024-0.003,0.046-0.004,0.07v0.001
				c0,0.008-0.001,0.014-0.001,0.022v0.001c0,0.008-0.001,0.014-0.001,0.022c0,0,0,0,0,0.001c-0.025,0.455-0.045,0.909-0.06,1.366
				l1.999,0.065C193.891,185.751,194.282,182.444,194.945,179.228z"/>
			<path fill="#E1E1E1" d="M251.75,133c2.591,0,5.198,0.172,7.748,0.513l0.266-1.982h-0.005c-0.008-0.001-0.016-0.002-0.022-0.003
				c-0.004,0-0.002,0-0.006-0.001c-0.008-0.001-0.018-0.002-0.021-0.003h-0.004c-0.015-0.001-0.021-0.002-0.03-0.004
				c-0.002,0,0.001,0,0,0c-0.009-0.001-0.021-0.002-0.023-0.003c-0.002,0-0.004-0.001-0.006-0.001
				c-0.012-0.001-0.02-0.002-0.023-0.003h-0.004c-0.021-0.002-0.039-0.005-0.062-0.007c-0.002,0-0.002,0-0.004-0.001
				c-0.008-0.001-0.02-0.002-0.021-0.003c-0.003,0-0.003,0-0.005,0c-0.021-0.003-0.039-0.005-0.062-0.008c-0.002,0-0.001,0-0.003,0
				c-0.01-0.001-0.021-0.002-0.023-0.003c-0.006,0,0,0-0.006,0c-0.027-0.003-0.061-0.007-0.09-0.011h-0.003
				c-0.026-0.003-0.062-0.007-0.09-0.011h-0.002c-0.03-0.004-0.062-0.008-0.095-0.011h-0.002c-1.52-0.187-3.057-0.316-4.604-0.388
				h-0.001c-0.031-0.001-0.062-0.003-0.097-0.004l0,0c-0.028-0.001-0.062-0.002-0.095-0.004h-0.002c-0.01,0-0.02-0.001-0.028-0.001
				l0,0c-0.021,0-0.043-0.001-0.062-0.002c-0.002,0,0,0-0.001,0c-0.01,0-0.021-0.001-0.029-0.001l0,0
				c-0.021,0-0.041-0.001-0.062-0.002h-0.002c-0.011,0-0.021,0-0.028-0.001c-0.003,0,0,0-0.003,0
				c-0.028-0.001-0.062-0.002-0.092-0.004h-0.003c-0.03-0.001-0.062-0.002-0.092-0.003h-0.004c-0.01,0-0.021,0-0.027-0.001h-0.001
				c-0.021-0.001-0.041-0.001-0.062-0.002c-0.002,0-0.004,0-0.006,0c-0.012,0-0.021,0-0.025-0.001c-0.002,0-0.002,0-0.004,0
				c-0.021,0-0.041-0.001-0.062-0.002c-0.002,0-0.003,0-0.005,0c-0.008,0-0.019,0-0.022-0.001c-0.002,0-0.004,0-0.006,0
				c-0.021-0.001-0.039-0.001-0.062-0.002c-0.002,0-0.002,0-0.004,0c-0.011,0-0.021,0-0.026,0c-0.002,0-0.003,0-0.005,0
				c-0.021-0.001-0.04-0.001-0.062-0.002h-0.004c-0.012,0-0.021,0-0.024-0.001c-0.002,0-0.004,0-0.009,0
				c-0.008,0-0.02,0-0.026-0.001c-0.011,0-0.021,0-0.028-0.001h-0.002c-0.012,0-0.021,0-0.027-0.001c-0.002,0-0.004,0-0.006,0
				c-0.01,0-0.02,0-0.023,0h-0.003c-0.021-0.001-0.04-0.001-0.062-0.002c-0.002,0-0.007,0-0.009,0c-0.009,0-0.017,0-0.022,0
				c-0.002,0-0.002,0-0.004,0c-0.021,0-0.041-0.001-0.062-0.001c-0.002,0-0.003,0-0.006,0c-0.01,0-0.019,0-0.021,0s-0.008,0-0.01,0
				c-0.021,0-0.039-0.001-0.059-0.001c-0.006,0-0.006,0-0.01,0c-0.008,0-0.017,0-0.021,0c-0.002,0-0.004,0-0.006,0
				c-0.013,0-0.021,0-0.024,0c-0.005,0-0.004,0-0.006,0c-0.01,0-0.021,0-0.025-0.001c-0.002,0-0.004,0-0.006,0
				c-0.012,0-0.02,0-0.022,0s-0.004,0-0.009,0c-0.008,0-0.02,0-0.023,0c-0.002,0-0.003,0-0.005,0c-0.01,0-0.021,0-0.028-0.001
				c-0.002,0-0.004,0-0.006,0c-0.008,0-0.017,0-0.023,0c-0.004,0-0.002,0-0.006,0c-0.01,0-0.018,0-0.021,0c-0.002,0-0.004,0-0.007,0
				c-0.012,0-0.021,0-0.028,0c-0.002,0-0.002,0-0.004,0c-0.008,0-0.021,0-0.021,0c-0.002,0-0.01,0-0.012,0c-0.008,0-0.015,0-0.021,0
				c-0.003,0-0.008,0-0.01,0c-0.01,0-0.021,0-0.025,0h-0.002c-0.012,0-0.021,0-0.025,0c-0.003,0-0.008,0-0.01,0
				c-0.008,0-0.015,0-0.021,0c-0.002,0-0.006,0-0.008,0c-0.01,0-0.019,0-0.026,0h-0.002c-0.011,0-0.021,0-0.027,0
				c-0.002,0-0.008,0-0.01,0c-0.006,0-0.015,0-0.021,0c-0.002,0-0.007,0-0.009,0c-0.008,0-0.021,0-0.022,0s-0.002,0-0.004,0
				c-0.012,0-0.021,0-0.027,0c-0.002,0-0.006,0-0.008,0c-0.008,0-0.018,0-0.021,0s-0.006,0-0.01,0c-0.01,0-0.018,0-0.021,0
				c-0.002,0-0.004,0-0.006,0c-0.01,0-0.02,0-0.029,0c-0.002,0-0.003,0-0.005,0c-0.008,0-0.016,0-0.024,0c-0.004,0-0.004,0-0.008,0
				c-0.007,0-0.015,0-0.022,0c-0.002,0-0.005,0-0.007,0c-0.01,0-0.02,0-0.029,0c-0.002,0-0.002,0-0.004,0c-0.008,0-0.017,0-0.025,0
				c-0.002,0-0.007,0-0.009,0c-0.007,0-0.014,0-0.021,0c-0.002,0-0.006,0-0.008,0c-0.009,0-0.018,0-0.027,0
				c-0.002,0-0.002,0-0.004,0c-0.009,0-0.018,0-0.026,0c-0.002,0-0.007,0-0.009,0c-0.006,0-0.013,0-0.02,0c-0.002,0-0.007,0-0.01,0
				c-0.009,0-0.017,0-0.026,0c-0.002,0,0,0-0.002,0c-0.01,0-0.021,0-0.029,0c-0.002,0-0.006,0-0.008,0c-0.007,0-0.015,0-0.021,0
				c-0.004,0-0.005,0-0.009,0c-0.008,0-0.015,0-0.023,0c-0.002,0-0.004,0-0.006,0c-0.01,0-0.019,0-0.028,0c-0.004,0-0.004,0-0.008,0
				c-0.007,0-0.014,0-0.021,0c-0.004,0-0.006,0-0.01,0c-0.007,0-0.014,0-0.021,0c-0.004,0-0.004,0-0.008,0c-0.009,0-0.019,0-0.028,0
				c-0.002,0-0.004,0-0.006,0c-0.007,0-0.015,0-0.022,0c-0.004,0-0.005,0-0.009,0c-0.007,0-0.014,0-0.021,0
				c-0.002,0-0.006,0-0.008,0c-0.009,0-0.019,0-0.029,0c-0.002,0,0,0-0.002,0c-0.009,0-0.017,0-0.026,0c-0.002,0-0.007,0-0.009,0
				c-0.007,0-0.014,0-0.021,0c-0.002,0-0.006,0-0.008,0c-0.009,0-0.019,0-0.029,0c-0.008,0-0.015,0-0.022,0
				c-0.002,0-0.005,0-0.007,0c-0.004,0-0.011,0-0.015,0c-0.003,0-0.006,0-0.009,0c-0.004,0-0.009,0-0.013,0c-0.003,0-0.006,0-0.01,0
				s-0.009,0-0.013,0c-0.003,0-0.006,0-0.009,0c-0.006,0-0.01,0-0.017,0c-0.002,0-0.003,0-0.006,0c-0.008,0-0.014,0-0.022,0
				c-0.002,0-0.005,0-0.007,0c-0.006,0-0.01,0-0.016,0c-0.003,0-0.005,0-0.008,0c-0.004,0-0.01,0-0.015,0c-0.003,0-0.006,0-0.009,0
				c-0.004,0-0.01,0-0.014,0c-0.003,0-0.006,0-0.009,0c-0.006,0-0.01,0-0.016,0c-0.002,0-0.004,0-0.006,0c-0.008,0-0.014,0-0.022,0
				c-0.002,0-0.004,0-0.006,0c-0.006,0-0.011,0-0.017,0c-0.002,0-0.005,0-0.008,0c-0.004,0-0.011,0-0.015,0
				c-0.002,0-0.005,0-0.008,0c-0.004,0-0.011,0-0.015,0c-0.002,0-0.005,0-0.008,0c-0.006,0-0.01,0-0.016,0c-0.002,0-0.004,0-0.006,0
				c-0.008,0-0.014,0-0.022,0c-0.002,0-0.004,0-0.006,0c-0.006,0-0.011,0-0.017,0c-0.002,0-0.005,0-0.008,0
				c-0.004,0-0.011,0-0.015,0c-0.003,0-0.006,0-0.008,0c-0.004,0-0.011,0-0.015,0c-0.003,0-0.005,0-0.008,0c-0.006,0-0.01,0-0.016,0
				c-0.002,0-0.004,0-0.006,0c-0.016,0-0.029,0-0.045,0c-0.002,0-0.004,0-0.007,0c-0.004,0-0.012,0-0.016,0
				c-0.003,0-0.005,0-0.008,0c-0.004,0-0.011,0-0.015,0c-0.003,0-0.005,0-0.008,0c-0.004,0-0.012,0-0.016,0
				c-0.002,0-0.004,0-0.007,0c-0.008,0-0.012,0-0.021,0c0,0-0.001,0-0.002,0c-0.008,0-0.015,0-0.023,0c-0.002,0-0.003,0-0.005,0
				c-0.006,0-0.011,0-0.018,0c-0.002,0-0.005,0-0.008,0c-0.004,0-0.011,0-0.015,0c-0.002,0-0.005,0-0.008,0
				c-0.004,0-0.011,0-0.016,0c-0.002,0-0.004,0-0.007,0c-0.006,0-0.013,0-0.019,0c-0.001,0-0.003,0-0.004,0
				c-0.008,0-0.014,0-0.022,0c-0.002,0-0.005,0-0.007,0c-0.006,0-0.01,0-0.016,0c-0.002,0-0.005,0-0.008,0c-0.004,0-0.011,0-0.015,0
				c-0.003,0-0.005,0-0.008,0c-0.004,0-0.01,0-0.015,0c-0.002,0-0.005,0-0.008,0c-0.006,0-0.009,0-0.015,0c-0.002,0-0.005,0-0.007,0
				c-0.008,0-0.015,0-0.022,0c-0.001,0-0.002,0-0.003,0c-0.008,0-0.011,0-0.019,0c-0.003,0-0.005,0-0.008,0
				c-0.004,0-0.011,0-0.015,0c-0.003,0-0.005,0-0.008,0c-0.004,0-0.011,0-0.015,0c-0.002,0-0.005,0-0.008,0c-0.006,0-0.01,0-0.016,0
				c-0.002,0-0.004,0-0.006,0c-0.008,0-0.015,0-0.022,0c0,0,0,0-0.001,0c-0.008,0-0.014,0-0.022,0c-0.002,0-0.004,0-0.006,0
				c-0.006,0-0.011,0-0.017,0c-0.003,0-0.005,0-0.007,0c-0.004,0-0.012,0-0.016,0c-0.002,0-0.005,0-0.007,0
				c-0.006,0-0.011,0-0.017,0c-0.002,0-0.004,0-0.006,0c-0.016,0-0.029,0-0.045,0.001c-0.002,0-0.005,0-0.007,0
				c-0.006,0-0.01,0-0.016,0c-0.002,0-0.005,0-0.008,0c-0.004,0-0.011,0-0.015,0c-0.003,0-0.005,0-0.008,0c-0.004,0-0.013,0-0.017,0
				c-0.002,0-0.004,0-0.006,0c-0.008,0-0.012,0-0.02,0c-0.001,0-0.001,0-0.002,0c-0.008,0-0.015,0-0.023,0c-0.001,0-0.002,0-0.003,0
				c-0.008,0-0.012,0-0.02,0c-0.002,0-0.004,0-0.006,0c-0.004,0-0.013,0-0.017,0c-0.002,0-0.005,0-0.007,0c-0.004,0-0.011,0-0.015,0
				c-0.003,0-0.006,0-0.009,0c-0.004,0-0.012,0-0.016,0c-0.002,0-0.003,0-0.005,0c-0.008,0-0.014,0-0.022,0
				c-0.002,0-0.004,0-0.007,0c-0.006,0-0.01,0-0.016,0c-0.003,0-0.006,0-0.008,0c-0.004,0-0.01,0-0.014,0c-0.003,0-0.006,0-0.009,0
				c-0.004,0-0.011,0-0.015,0c-0.002,0-0.005,0-0.008,0c-0.004,0-0.01,0-0.014,0c-0.003,0-0.006,0-0.008,0c-0.008,0-0.014,0-0.022,0
				c-0.002,0-0.004,0-0.006,0c-0.006,0-0.01,0-0.016,0c-0.003,0-0.006,0-0.01,0s-0.009,0-0.013,0c-0.003,0-0.006,0-0.009,0
				c-0.004,0-0.01,0-0.014,0c-0.003,0-0.006,0-0.009,0c-0.004,0-0.011,0-0.015,0c-0.002,0-0.004,0-0.007,0c-0.008,0-0.012,0-0.02,0
				c-0.002,0-0.003,0-0.005,0c-0.008,0-0.012,0-0.02,0.001c-0.002,0-0.005,0-0.007,0c-0.004,0-0.011,0-0.015,0
				c-0.003,0-0.006,0-0.009,0c-0.004,0-0.01,0-0.014,0c-0.003,0-0.006,0-0.009,0c-0.004,0-0.009,0-0.013,0c-0.003,0-0.006,0-0.009,0
				c-0.006,0-0.011,0-0.018,0c-0.001,0-0.003,0-0.004,0c-0.008,0-0.015,0-0.022,0.001c-0.002,0-0.004,0-0.005,0
				c-0.006,0-0.011,0-0.018,0c-0.002,0-0.004,0-0.007,0c-0.004,0-0.011,0-0.016,0c-0.002,0-0.005,0-0.008,0
				c-0.004,0-0.011,0-0.016,0c-0.002,0-0.004,0-0.007,0c-0.006,0-0.011,0-0.017,0c-0.002,0-0.004,0-0.006,0
				c-0.008,0-0.014,0-0.022,0c-0.002,0-0.004,0-0.006,0c-0.006,0-0.01,0-0.017,0c-0.002,0-0.005,0-0.008,0c-0.004,0-0.011,0-0.015,0
				c-0.003,0-0.005,0-0.008,0c-0.004,0-0.011,0-0.015,0c-0.003,0-0.005,0-0.008,0c-0.006,0-0.011,0-0.017,0
				c-0.001,0-0.003,0-0.005,0c-0.008,0-0.015,0-0.023,0.001c-0.001,0-0.002,0-0.002,0c-0.008,0-0.012,0-0.02,0.001
				c-0.002,0-0.004,0-0.006,0c-0.004,0-0.012,0-0.016,0c-0.003,0-0.005,0-0.008,0c-0.004,0-0.011,0-0.015,0
				c-0.002,0-0.005,0-0.007,0c-0.006,0-0.01,0-0.016,0c-0.002,0-0.005,0-0.008,0c-0.016,0-0.028,0.001-0.044,0.001
				c-0.003,0-0.005,0-0.008,0c-0.004,0-0.011,0-0.015,0c-0.003,0-0.005,0-0.008,0c-0.004,0-0.01,0-0.014,0c-0.003,0-0.005,0-0.008,0
				c-0.004,0-0.012,0-0.016,0c-0.002,0-0.004,0-0.006,0c-0.008,0-0.014,0-0.021,0c0,0,0,0-0.001,0c-0.008,0-0.015,0.001-0.022,0.001
				c-0.002,0-0.004,0-0.006,0c-0.004,0-0.012,0-0.016,0c-0.003,0-0.006,0-0.009,0c-0.004,0-0.01,0-0.014,0c-0.003,0-0.005,0-0.008,0
				c-0.004,0-0.012,0-0.016,0.001c-0.002,0-0.004,0-0.007,0c-0.008,0-0.012,0-0.021,0.001c-0.001,0-0.001,0-0.002,0
				c-0.008,0-0.015,0-0.022,0.001c-0.002,0-0.003,0-0.005,0c-0.006,0-0.012,0-0.018,0.001c-0.002,0-0.004,0-0.006,0
				c-0.004,0-0.012,0-0.016,0c-0.003,0-0.005,0-0.008,0c-0.004,0-0.011,0-0.015,0c-0.002,0-0.005,0-0.007,0
				c-0.006,0-0.011,0-0.018,0c-0.001,0-0.003,0-0.005,0c-0.008,0-0.015,0-0.023,0.001c0,0,0,0-0.001,0c-0.008,0-0.013,0-0.021,0.001
				c-0.001,0-0.004,0-0.005,0c-0.006,0-0.012,0-0.018,0.001c-0.002,0-0.004,0-0.006,0c-0.004,0-0.013,0-0.017,0.001
				c-0.002,0-0.004,0-0.006,0c-0.006,0-0.012,0-0.018,0.001c-0.001,0-0.003,0-0.004,0c-0.016,0.001-0.029,0.001-0.045,0.002
				c-0.002,0-0.004,0-0.007,0c-0.004,0-0.01,0-0.014,0c-0.003,0-0.006,0-0.01,0s-0.009,0-0.013,0c-0.003,0-0.006,0-0.009,0
				c-0.004,0-0.011,0-0.015,0c-0.002,0-0.004,0-0.007,0c-0.008,0-0.013,0-0.021,0.001h-0.001c-0.008,0-0.015,0.001-0.022,0.001
				c-0.002,0-0.004,0-0.006,0c-0.006,0-0.011,0-0.017,0c-0.002,0-0.004,0-0.006,0c-0.004,0-0.012,0-0.016,0.001
				c-0.003,0-0.005,0-0.007,0c-0.004,0-0.012,0-0.016,0.001c-0.002,0-0.004,0-0.006,0c-0.006,0-0.013,0.001-0.019,0.001
				c-0.001,0-0.002,0-0.004,0c-0.008,0-0.015,0-0.023,0.001c-0.001,0-0.001,0-0.002,0c-0.008,0-0.012,0-0.02,0.001
				c-0.002,0-0.004,0-0.006,0c-0.004,0-0.013,0-0.017,0c-0.002,0-0.004,0-0.007,0c-0.004,0-0.012,0-0.016,0.001
				c-0.002,0-0.005,0-0.007,0c-0.006,0-0.011,0-0.017,0.001c-0.002,0-0.004,0-0.005,0c-0.008,0-0.014,0-0.022,0.001
				c-0.001,0-0.003,0-0.004,0c-0.006,0-0.012,0.001-0.018,0.001c-0.002,0-0.004,0-0.007,0c-0.004,0-0.011,0-0.015,0
				c-0.003,0-0.006,0-0.009,0c-0.004,0-0.009,0-0.013,0.001c-0.003,0-0.006,0-0.01,0s-0.01,0-0.014,0c-0.003,0-0.005,0-0.008,0
				c-0.008,0-0.014,0.001-0.022,0.001h-0.001c-0.008,0-0.012,0-0.021,0.001c-0.003,0-0.005,0-0.008,0c-0.004,0-0.01,0-0.015,0
				c-0.002,0-0.005,0-0.008,0c-0.004,0-0.011,0-0.015,0.001c-0.002,0-0.004,0-0.007,0c-0.006,0-0.012,0.001-0.018,0.001
				c-0.002,0-0.003,0-0.005,0c-0.008,0-0.012,0-0.021,0.001c0,0-0.001,0-0.002,0c-0.008,0-0.014,0.001-0.022,0.001
				c-0.002,0-0.004,0-0.007,0c-0.004,0-0.011,0-0.015,0c-0.003,0-0.006,0-0.009,0c-0.004,0-0.01,0-0.014,0.001
				c-0.002,0-0.005,0-0.008,0c-0.004,0-0.011,0-0.015,0.001c-0.002,0-0.005,0-0.008,0c-0.008,0-0.011,0.001-0.02,0.001
				c0,0-0.001,0-0.002,0c-0.008,0-0.014,0.001-0.021,0.001c-0.002,0-0.005,0-0.008,0c-0.004,0-0.01,0.001-0.014,0.001
				c-0.003,0-0.006,0-0.009,0c-0.004,0-0.009,0-0.013,0.001c-0.003,0-0.006,0-0.009,0c-0.004,0-0.01,0-0.014,0
				c-0.003,0-0.006,0-0.009,0c-0.006,0-0.011,0.001-0.017,0.001c-0.001,0-0.003,0-0.005,0c-0.008,0-0.015,0.001-0.022,0.001
				c-0.001,0-0.002,0-0.003,0c-0.008,0-0.011,0-0.019,0.001c-0.002,0-0.004,0-0.006,0c-0.004,0-0.012,0.001-0.016,0.001
				c-0.002,0-0.005,0-0.007,0c-0.004,0-0.012,0-0.016,0.001c-0.002,0-0.004,0-0.007,0c-0.006,0-0.012,0-0.018,0.001
				c-0.002,0-0.003,0-0.005,0c-0.008,0-0.014,0.001-0.022,0.001c-0.001,0-0.003,0-0.004,0c-0.006,0-0.012,0-0.018,0.001
				c-0.002,0-0.004,0-0.006,0c-0.004,0-0.013,0-0.017,0.001c-0.002,0-0.004,0-0.007,0c-0.004,0-0.012,0-0.016,0.001
				c-0.002,0-0.004,0-0.007,0c-0.006,0-0.01,0.001-0.016,0.001c-0.002,0-0.004,0-0.006,0c-0.008,0-0.014,0.001-0.022,0.001l0,0
				c-0.008,0-0.014,0.001-0.022,0.001c-0.002,0-0.004,0-0.006,0c-0.004,0-0.012,0-0.016,0.001c-0.002,0-0.005,0-0.008,0
				c-0.004,0-0.011,0-0.015,0.001c-0.002,0-0.005,0-0.008,0c-0.004,0-0.012,0-0.016,0.001c-0.002,0-0.003,0-0.005,0
				c-0.016,0.001-0.03,0.002-0.046,0.003c-0.001,0-0.002,0-0.003,0c-0.008,0-0.011,0-0.019,0.001c-0.002,0-0.004,0-0.007,0
				c-0.004,0-0.012,0.001-0.016,0.001c-0.002,0-0.004,0-0.007,0c-0.004,0-0.012,0-0.016,0.001c-0.002,0-0.004,0-0.006,0
				c-0.006,0-0.012,0-0.018,0.001c-0.001,0-0.003,0-0.004,0c-0.008,0-0.015,0.001-0.023,0.001c-0.001,0-0.002,0-0.003,0
				c-0.008,0-0.011,0.001-0.019,0.001c-0.002,0-0.004,0-0.007,0c-0.004,0-0.011,0-0.016,0.001c-0.002,0-0.005,0-0.008,0
				c-0.004,0-0.011,0-0.015,0.001c-0.002,0-0.004,0-0.007,0c-0.006,0-0.012,0.001-0.018,0.001c-0.001,0-0.003,0-0.005,0
				c-0.016,0.001-0.029,0.002-0.045,0.003c-0.001,0-0.003,0-0.005,0c-0.006,0-0.011,0.001-0.017,0.001c-0.002,0-0.004,0-0.006,0
				c-0.004,0-0.012,0.001-0.016,0.001c-0.003,0-0.005,0-0.007,0c-0.006,0-0.012,0-0.018,0.001c-0.001,0-0.003,0-0.004,0
				c-0.016,0.001-0.03,0.002-0.046,0.003c-0.001,0-0.003,0-0.004,0c-0.006,0-0.012,0.001-0.018,0.001c-0.002,0-0.004,0-0.007,0
				c-0.004,0-0.013,0.001-0.017,0.001c-0.002,0-0.004,0-0.005,0c-0.006,0-0.013,0.001-0.019,0.001c-0.001,0-0.003,0-0.004,0
				c-0.016,0.001-0.029,0.002-0.045,0.003c-0.001,0-0.003,0-0.005,0c-0.006,0-0.012,0.001-0.018,0.001c-0.001,0-0.003,0-0.005,0
				c-0.004,0-0.013,0.001-0.017,0.001c-0.002,0-0.004,0-0.006,0c-0.008,0-0.011,0-0.019,0.001c-0.001,0-0.002,0-0.004,0
				c-0.016,0.001-0.03,0.002-0.046,0.003c-0.001,0-0.001,0-0.002,0c-0.008,0-0.012,0-0.02,0.001c-0.002,0-0.004,0-0.006,0
				c-0.004,0-0.012,0-0.016,0.001c-0.002,0-0.005,0-0.008,0c-0.004,0-0.01,0.001-0.015,0.001c-0.002,0-0.005,0-0.008,0.001
				c-0.006,0-0.012,0.001-0.019,0.001c-0.001,0-0.003,0-0.004,0c-0.016,0.001-0.03,0.002-0.046,0.003c-0.001,0-0.003,0-0.004,0
				c-0.006,0-0.012,0.001-0.018,0.001c-0.002,0-0.004,0-0.006,0c-0.004,0-0.013,0.001-0.017,0.001c-0.002,0-0.004,0-0.006,0
				c-0.008,0.001-0.01,0.001-0.019,0.001c-0.001,0-0.002,0-0.003,0c-0.016,0.001-0.03,0.002-0.045,0.003c-0.002,0-0.004,0-0.005,0
				c-0.006,0-0.011,0.001-0.017,0.001c-0.002,0-0.004,0-0.006,0c-0.004,0-0.013,0.001-0.017,0.001c-0.001,0-0.004,0-0.006,0
				c-0.006,0-0.012,0.001-0.018,0.001c-0.001,0-0.002,0-0.004,0c-0.016,0.001-0.03,0.002-0.046,0.004c0,0-0.001,0-0.002,0
				c-0.008,0.001-0.012,0.001-0.02,0.002c-0.002,0-0.003,0-0.005,0c-0.006,0-0.012,0.001-0.018,0.001c-0.001,0-0.003,0-0.005,0
				c-0.008,0.001-0.011,0.001-0.019,0.002c-0.001,0-0.002,0-0.004,0c-0.016,0.001-0.031,0.002-0.046,0.004
				c-0.008,0.001-0.015,0.001-0.022,0.002c-0.001,0-0.002,0-0.003,0c-0.008,0-0.011,0-0.019,0.001c-0.002,0-0.003,0-0.005,0
				c-0.008,0-0.011,0.001-0.019,0.001c-0.001,0-0.002,0-0.004,0c-0.008,0-0.014,0.001-0.022,0.001
				c-0.016,0.001-0.03,0.003-0.046,0.004c-0.001,0-0.003,0-0.005,0c-0.006,0-0.012,0.001-0.018,0.002c-0.002,0-0.004,0-0.005,0
				c-0.006,0-0.012,0.001-0.018,0.002c-0.001,0-0.003,0-0.005,0c-0.008,0.001-0.012,0.001-0.02,0.002c-0.001,0-0.001,0-0.002,0
				c-0.016,0.001-0.03,0.003-0.046,0.004c-0.001,0-0.002,0-0.003,0c-0.008,0.001-0.012,0.001-0.02,0.002c-0.001,0-0.003,0-0.005,0
				c-0.004,0-0.013,0.001-0.017,0.001c-0.002,0-0.004,0-0.006,0c-0.006,0-0.012,0.001-0.018,0.001c-0.002,0-0.003,0-0.005,0
				c-0.016,0.001-0.03,0.002-0.045,0.004c-0.001,0-0.002,0-0.004,0c-0.008,0-0.011,0.001-0.019,0.001c-0.001,0-0.004,0-0.005,0
				c-0.004,0-0.013,0.001-0.017,0.002c-0.002,0-0.004,0-0.006,0c-0.008,0-0.011,0.001-0.019,0.001c-0.001,0-0.002,0-0.003,0
				c-0.016,0.001-0.03,0.002-0.046,0.004c0,0-0.001,0-0.002,0c-0.008,0-0.012,0.001-0.02,0.001c-0.002,0-0.004,0-0.006,0.001
				c-0.006,0-0.011,0.001-0.017,0.001c-0.002,0-0.003,0-0.005,0c-0.006,0-0.012,0.001-0.018,0.001c-0.001,0-0.003,0-0.004,0
				c-0.016,0.001-0.03,0.003-0.046,0.004l0,0c-0.008,0-0.014,0.001-0.022,0.002c-0.001,0-0.003,0-0.005,0
				c-0.006,0-0.012,0.001-0.018,0.001c-0.002,0-0.003,0-0.005,0.001c-0.006,0-0.012,0.001-0.018,0.001c-0.002,0-0.003,0-0.005,0
				c-0.008,0-0.012,0.001-0.02,0.002c-0.001,0-0.002,0-0.003,0c-0.016,0.001-0.03,0.003-0.046,0.004c-0.001,0-0.001,0-0.002,0
				c-0.008,0-0.013,0.001-0.021,0.002c-0.001,0-0.003,0-0.004,0c-0.006,0-0.012,0.001-0.018,0.001c-0.001,0-0.003,0-0.005,0
				c-0.008,0.001-0.012,0.001-0.02,0.002c-0.001,0-0.001,0-0.002,0c-0.016,0.001-0.03,0.003-0.046,0.004c-0.001,0-0.002,0-0.003,0
				c-0.008,0.001-0.011,0.001-0.019,0.002c-0.001,0-0.003,0-0.005,0c-0.006,0.001-0.012,0.001-0.019,0.002c-0.001,0-0.003,0-0.004,0
				c-0.008,0-0.013,0.001-0.021,0.002c0,0-0.001,0-0.002,0c-0.016,0.002-0.031,0.003-0.046,0.005c0,0-0.001,0-0.002,0
				c-0.008,0.001-0.013,0.001-0.021,0.002c-0.001,0-0.003,0-0.004,0c-0.008,0.001-0.011,0.001-0.019,0.002c-0.001,0-0.003,0-0.004,0
				c-0.008,0.001-0.012,0.001-0.02,0.002c-0.001,0-0.002,0-0.003,0c-0.008,0-0.013,0.001-0.021,0.002c-0.001,0-0.002,0-0.003,0
				c-0.008,0-0.015,0.001-0.023,0.002c0,0,0,0-0.001,0c-0.008,0-0.013,0.001-0.021,0.002c-0.001,0-0.003,0-0.005,0
				c-0.006,0-0.012,0.001-0.018,0.002c-0.001,0-0.003,0-0.005,0c-0.008,0-0.01,0.001-0.018,0.002c-0.001,0-0.003,0-0.004,0
				c-0.024,0.002-0.045,0.004-0.069,0.007c-0.001,0-0.001,0-0.002,0c-0.008,0-0.012,0.001-0.02,0.002c-0.001,0-0.002,0-0.004,0
				c-0.008,0-0.012,0.001-0.021,0.002c-0.001,0-0.002,0-0.003,0c-0.008,0-0.015,0.001-0.022,0.002l0,0
				c-0.016,0.001-0.031,0.003-0.047,0.005l0,0c-0.008,0.001-0.015,0.001-0.022,0.002h-0.001c-0.008,0.001-0.013,0.001-0.021,0.002
				c-0.001,0-0.001,0-0.002,0c-0.008,0.001-0.015,0.002-0.022,0.002c-0.024,0.002-0.046,0.005-0.07,0.008c-0.001,0-0.002,0-0.002,0
				c-0.008,0.001-0.013,0.001-0.021,0.002c0,0-0.001,0-0.002,0c-0.008,0.001-0.014,0.001-0.021,0.002h-0.001
				c-0.023,0.002-0.046,0.005-0.069,0.007c-0.001,0-0.001,0-0.002,0c-0.008,0.001-0.012,0.001-0.021,0.002c-0.001,0-0.002,0-0.004,0
				c-0.008,0.001-0.013,0.001-0.021,0.002h-0.001c-0.022,0.003-0.046,0.005-0.07,0.008h-0.001c-0.008,0.001-0.013,0.001-0.021,0.002
				c0,0-0.001,0-0.002,0c-0.008,0.001-0.013,0.001-0.021,0.002c-0.001,0-0.002,0-0.002,0c-0.032,0.003-0.061,0.007-0.092,0.01
				c-0.001,0-0.001,0-0.002,0c-0.008,0.001-0.013,0.001-0.021,0.002c-0.001,0-0.002,0-0.003,0c-0.031,0.004-0.061,0.007-0.092,0.011
				h-0.001c-0.008,0.001-0.014,0.002-0.021,0.003c-0.001,0-0.001,0-0.002,0c-0.032,0.004-0.062,0.007-0.093,0.011h-0.001
				c-0.008,0.001-0.015,0.002-0.022,0.003c-0.04,0.004-0.078,0.009-0.118,0.014l0,0c-0.047,0.005-0.093,0.011-0.141,0.017
				c-0.031,0.004-0.062,0.008-0.094,0.012c-0.89,0.112-1.776,0.243-2.654,0.394l0.337,1.971C245.121,133.281,248.439,133,251.75,133
				z"/>
			<path fill="#E1E1E1" d="M232.313,136.336l-0.67-1.884c-1.47,0.522-2.913,1.101-4.327,1.731l0,0
				c-0.042,0.019-0.084,0.038-0.126,0.057h-0.001c-0.005,0.002-0.01,0.005-0.015,0.007c-0.001,0.001-0.003,0.001-0.005,0.002
				c-0.004,0.002-0.009,0.004-0.014,0.006c-0.001,0-0.003,0.001-0.004,0.002c-0.005,0.002-0.01,0.004-0.015,0.006
				c-0.002,0.001-0.002,0.001-0.004,0.002c-0.005,0.002-0.01,0.004-0.015,0.007l-0.003,0.001c-0.022,0.01-0.044,0.021-0.067,0.031
				c-0.002,0-0.003,0.001-0.005,0.002c-0.004,0.002-0.008,0.003-0.012,0.005c-0.003,0.001-0.004,0.002-0.008,0.004
				c-0.004,0.001-0.007,0.003-0.011,0.005c-0.003,0.001-0.005,0.002-0.008,0.004c-0.003,0.001-0.007,0.003-0.011,0.005
				c-0.003,0.001-0.005,0.002-0.009,0.004c-0.003,0.001-0.007,0.003-0.011,0.005c-0.004,0.002-0.006,0.003-0.01,0.004
				c-0.003,0.001-0.005,0.002-0.008,0.004c-0.005,0.002-0.012,0.005-0.017,0.008c-0.001,0.001-0.003,0.001-0.005,0.002
				c-0.005,0.002-0.012,0.005-0.017,0.008c-0.002,0.001-0.004,0.002-0.006,0.003c-0.005,0.002-0.008,0.003-0.014,0.006
				c-0.002,0.001-0.004,0.002-0.006,0.003c-0.005,0.002-0.009,0.004-0.015,0.007c-0.001,0-0.003,0.001-0.004,0.002
				c-0.003,0.001-0.012,0.005-0.015,0.007c-0.002,0.001-0.003,0.001-0.005,0.002c-0.005,0.002-0.01,0.004-0.015,0.007
				c-0.001,0.001-0.003,0.001-0.005,0.002c-0.007,0.003-0.01,0.004-0.017,0.008c-0.001,0-0.001,0-0.002,0.001
				c-0.021,0.009-0.041,0.019-0.061,0.028c-0.001,0-0.001,0.001-0.002,0.001c-0.007,0.003-0.011,0.005-0.018,0.008
				c-0.001,0-0.002,0.001-0.003,0.002c-0.007,0.003-0.01,0.004-0.017,0.007c-0.001,0-0.002,0.001-0.003,0.001
				c-0.007,0.003-0.011,0.005-0.018,0.008c0,0-0.001,0.001-0.002,0.001c-1.486,0.684-2.939,1.427-4.357,2.229l0.982,1.742
				C226.183,138.819,229.212,137.439,232.313,136.336z"/>
		</g>
		<path fill="#E1E1E1" d="M309.75,191c0,31.981-26.02,58-58,58c-31.981,0-58-26.019-58-58h-2c0,33.137,26.864,60,60,60
			s60-26.863,60-60H309.75z"/>
	</g>
	<rect x="166.75" y="72" fill="#E1E1E1" width="5" height="2"/>
	<rect x="166.75" y="79" fill="#E1E1E1" width="5" height="2"/>
	<rect x="166.75" y="111" fill="#E1E1E1" width="5" height="2"/>
	<rect x="166.75" y="143" fill="#E1E1E1" width="5" height="2"/>
	<rect x="331.75" y="72" fill="#E1E1E1" width="5" height="2"/>
	<rect x="331.75" y="79" fill="#E1E1E1" width="5" height="2"/>
	<rect x="331.75" y="111" fill="#E1E1E1" width="5" height="2"/>
	<rect x="331.75" y="143" fill="#E1E1E1" width="5" height="2"/>
	<path fill="#E1E1E1" d="M470,2v140c-11.906,28.009-29.115,53.167-50.806,74.773c-21.714,21.629-46.996,38.609-75.149,50.471
		c-29.146,12.28-60.107,18.506-92.024,18.506c-31.917,0-62.878-6.226-92.024-18.506c-28.152-11.861-53.436-28.842-75.148-50.471
		C63.157,195.167,45.906,170.009,34,142V2h-2v140c36.029,85.61,120.995,145.75,220.021,145.75S435.966,227.61,471.995,142H472V2H470
		z"/>
</g>
<rect x="222.25" y="902.75" fill="#E1E1E1" width="60" height="2"/>
<path fill="#E1E1E1" d="M252,884.75c4.963,0,9,4.037,9,9s-4.037,9-9,9s-9-4.037-9-9S247.037,884.75,252,884.75z M252,900.633
	c3.795,0,6.882-3.088,6.882-6.883s-3.087-6.883-6.882-6.883s-6.882,3.088-6.882,6.883S248.205,900.633,252,900.633z"/>
<rect x="330.25" y="752" fill="#E1E1E1" width="2" height="190"/>
<rect x="310.25" y="752" fill="#E1E1E1" width="2" height="190"/>
<rect x="192.25" y="752" fill="#E1E1E1" width="2" height="190"/>
<rect x="172.25" y="752" fill="#E1E1E1" width="2" height="190"/>
<rect x="172.25" y="752" fill="#E1E1E1" width="160" height="2"/>
<path fill="#E1E1E1" d="M470.25,802.75"/>
<path fill="#E1E1E1" d="M209.956,792.689l-1.458,1.364c0.986,1.055,2.009,2.064,3.068,3.042v0.001
	c0.039,0.035,0.078,0.07,0.117,0.106l0.002,0.003c0.004,0.004,0.008,0.008,0.013,0.012l0.001,0.001
	c0.004,0.004,0.009,0.014,0.014,0.018h0.001c0.029,0.022,0.058,0.054,0.087,0.08c0.001,0.002,0,0,0.001,0.002
	c0.004,0.004,0.009,0.008,0.014,0.012l0.001,0.002c0.004,0.004,0.009,0.008,0.013,0.012l0.001,0.002
	c0.034,0.03,0.068,0.062,0.102,0.097l0.001,0.002c0.005,0.004,0.009,0.008,0.014,0.012l0.002,0.002
	c0.004,0.004,0.009,0.008,0.013,0.013l0.001,0.004c0.005,0.006,0.009,0.01,0.014,0.014c0.001,0.001,0,0,0.002,0.002
	c0.004,0.004,0.009,0.008,0.013,0.012l0,0c0.024,0.021,0.048,0.044,0.072,0.065c0.001,0.001,0.001,0.001,0.003,0.003
	c0.004,0.004,0.008,0.007,0.012,0.011c0.001,0.001,0.002,0.002,0.003,0.003c0.004,0.004,0.007,0.007,0.011,0.01
	c0.001,0.003,0.003,0.005,0.004,0.005c0.004,0.008,0.008,0.012,0.011,0.015c0.001,0.001,0.003,0.003,0.004,0.003
	c0.004,0.004,0.008,0.008,0.011,0.011c0.001,0.001,0.003,0.003,0.004,0.004c0.004,0.004,0.008,0.008,0.012,0.014l0,0
	c0.014,0.014,0.028,0.022,0.042,0.035c0.001,0.001,0.002,0.002,0.004,0.006c0.003,0.002,0.007,0.008,0.011,0.011
	c0.001,0.001,0.003,0.003,0.004,0.005c0.003,0.002,0.007,0.006,0.01,0.009c0.001,0.001,0.005,0.004,0.006,0.005
	c0.003,0.004,0.006,0.006,0.009,0.01c0.003,0.003,0.003,0.003,0.006,0.006c0.003,0.006,0.007,0.008,0.01,0.013
	c0.001,0,0.005,0.004,0.006,0.006c0.003,0.002,0.006,0.005,0.009,0.008c0.001,0.001,0.005,0.004,0.006,0.006
	c0.003,0.003,0.006,0.007,0.009,0.009c0.003,0.004,0.003,0.004,0.006,0.008c0.012,0.013,0.024,0.021,0.037,0.03l0.003,0.003
	c0.003,0.004,0.007,0.008,0.01,0.011c0.001,0.001,0.004,0.006,0.006,0.007c0.003,0.004,0.006,0.006,0.01,0.01
	c0.002,0.002,0.003,0.002,0.006,0.006c0.003,0.002,0.006,0.006,0.009,0.009c0.003,0.003,0.004,0.004,0.007,0.007
	c0.003,0.002,0.006,0.007,0.009,0.009c0.003,0.004,0.004,0.005,0.006,0.007c0.003,0.003,0.006,0.006,0.009,0.009
	c0.001,0.002,0.005,0.007,0.007,0.007c0.003,0.004,0.006,0.006,0.009,0.01c0.003,0.003,0.002,0.002,0.005,0.005
	c0.013,0.012,0.025,0.021,0.038,0.032l0.003,0.002c0.004,0.005,0.008,0.01,0.012,0.014c0.001,0,0.002,0.002,0.003,0.002
	c0.004,0.005,0.007,0.009,0.011,0.012c0.001,0.002,0.004,0.004,0.005,0.006c0.003,0.003,0.006,0.007,0.01,0.009
	c0.002,0.004,0.003,0.005,0.006,0.007c0.003,0.004,0.006,0.007,0.009,0.009c0.003,0.002,0.005,0.004,0.008,0.008
	c0.003,0.003,0.005,0.005,0.008,0.007c0.001,0.004,0.005,0.008,0.007,0.009c0.003,0.003,0.006,0.005,0.009,0.009
	c0.003,0.003,0.005,0.006,0.008,0.008c0.005,0.004,0.01,0.009,0.015,0.015c0.002,0.002,0.005,0.005,0.008,0.009
	c0.003,0.003,0.006,0.005,0.009,0.009c0.002,0.003,0.004,0.004,0.007,0.007s0.005,0.005,0.008,0.007
	c0.002,0.003,0.005,0.006,0.008,0.008c0.002,0.002,0.005,0.005,0.007,0.007c0.002,0.004,0.006,0.007,0.009,0.012
	c0.002,0.002,0.004,0.003,0.006,0.005c0.003,0.003,0.007,0.008,0.01,0.011c0.002,0.002,0.004,0.004,0.006,0.006
	c0.003,0.002,0.006,0.006,0.009,0.008c0.002,0.004,0.004,0.006,0.007,0.008s0.006,0.008,0.009,0.01
	c0.002,0.002,0.005,0.004,0.007,0.006c0.004,0.005,0.008,0.009,0.012,0.013c0.001,0.001,0.002,0.002,0.003,0.002
	c0.006,0.007,0.009,0.009,0.015,0.016c0.003,0.003,0.006,0.007,0.009,0.01c0.003,0.002,0.006,0.005,0.009,0.009
	c0.002,0.002,0.004,0.004,0.007,0.006s0.006,0.006,0.009,0.008c0.002,0.003,0.004,0.005,0.006,0.007
	c0.003,0.002,0.008,0.007,0.01,0.01c0.002,0.002,0.004,0.004,0.006,0.007c0.003,0.003,0.006,0.006,0.009,0.009
	c0.002,0.003,0.005,0.005,0.007,0.007c0.003,0.004,0.006,0.007,0.009,0.01c0.002,0.002,0.004,0.004,0.006,0.006
	c0.003,0.002,0.008,0.008,0.011,0.011c0.002,0.001,0.003,0.003,0.005,0.005c0.004,0.006,0.008,0.009,0.013,0.013
	c0.001,0.001,0.002,0.003,0.003,0.003c0.006,0.007,0.011,0.011,0.016,0.015c0.001,0.002,0.003,0.004,0.004,0.006
	c0.004,0.004,0.008,0.008,0.013,0.011c0.001,0.003,0.003,0.005,0.004,0.006c0.004,0.003,0.008,0.008,0.012,0.012
	c0.002,0.002,0.003,0.003,0.005,0.004c0.003,0.003,0.008,0.008,0.011,0.012c0.003,0.002,0.004,0.004,0.006,0.005
	c0.003,0.003,0.007,0.009,0.01,0.011c0.002,0.002,0.004,0.004,0.007,0.006c0.003,0.004,0.007,0.007,0.01,0.01
	c0.002,0.002,0.004,0.003,0.006,0.005c0.004,0.004,0.007,0.006,0.011,0.012c0.001,0.002,0.003,0.004,0.005,0.005
	c0.004,0.004,0.009,0.01,0.014,0.014c0,0.002,0.002,0.002,0.002,0.003c0.006,0.005,0.011,0.009,0.017,0.015
	c0.001,0,0.002,0.004,0.003,0.004c0.004,0.004,0.009,0.008,0.014,0.013c0.001,0.003,0.002,0.003,0.003,0.005
	c0.004,0.003,0.009,0.008,0.013,0.011c0.001,0.002,0.003,0.003,0.004,0.004c0.004,0.004,0.008,0.01,0.012,0.014
	c0.001,0,0.003,0.002,0.004,0.003c0.003,0.004,0.01,0.011,0.012,0.014c0.001,0.002,0.003,0.002,0.004,0.004
	c0.006,0.004,0.008,0.007,0.014,0.012c0,0,0.001,0.002,0.002,0.004c0.006,0.005,0.011,0.009,0.016,0.016l0,0
	c0.022,0.021,0.045,0.037,0.068,0.06c0,0,0,0,0.001,0.001c0.005,0.005,0.01,0.009,0.016,0.016l0.001,0.001
	c0.006,0.008,0.009,0.01,0.015,0.016c0.001,0,0.001,0,0.002,0.002c0.005,0.005,0.009,0.009,0.015,0.013
	c0,0.001,0.001,0.002,0.001,0.002c0.006,0.007,0.011,0.011,0.017,0.017l0,0c0.022,0.021,0.045,0.038,0.068,0.061
	c0,0,0,0,0.001,0.001c0.006,0.005,0.01,0.009,0.016,0.015v0.001c0.005,0.006,0.01,0.01,0.016,0.017c0,0,0.001,0,0.001,0.001
	c0.005,0.005,0.011,0.009,0.016,0.014v0.002c0.04,0.032,0.08,0.065,0.12,0.104l0,0c0.862,0.729,1.746,1.438,2.649,2.12l1.206-1.598
	C214.69,797.319,212.213,795.094,209.956,792.689z"/>
<path fill="#E1E1E1" d="M224.777,806.355c2.921,1.506,5.982,2.776,9.159,3.798l0.001,0.001c0.051,0.016,0.101,0.026,0.152,0.048
	l0.002,0.001c0.006,0.002,0.012,0.004,0.018,0.006c0.001,0,0,0,0.002,0c0.006,0.002,0.012,0.004,0.018,0.006h0.001
	c0.031,0.01,0.062,0.02,0.094,0.029c0.001,0.001,0,0,0.002,0.001c0.005,0.002,0.011,0.003,0.017,0.005l0.002,0.001l0.6-1.907
	c-3.141-0.987-6.219-2.254-9.149-3.767L224.777,806.355z"/>
<path fill="#E1E1E1" d="M192.396,757.221c0.241,3.461,0.775,6.842,1.578,10.116l1.942-0.477c-0.783-3.192-1.295-6.481-1.525-9.777
	L192.396,757.221z"/>
<path fill="#E1E1E1" d="M197.257,777.033c0.001,0.002,0.001,0.002,0.002,0.004c0.002,0.004,0.004,0.01,0.006,0.014l0.001,0.004
	c0.01,0.022,0.02,0.045,0.03,0.068c0.001,0.001,0.001,0.002,0.002,0.003c0.002,0.005,0.004,0.01,0.006,0.015
	c0,0.002,0.001,0.008,0.002,0.01c0.002,0.005,0.004,0.009,0.006,0.015c0,0.001,0.001,0.003,0.002,0.005
	c0.002,0.005,0.004,0.009,0.006,0.013c0,0.005,0.001,0.009,0.002,0.011c0.002,0.005,0.004,0.01,0.006,0.015
	c0,0.001,0,0.002,0.001,0.004c0.002,0.005,0.004,0.01,0.007,0.016l0.001,0.004c0.01,0.021,0.02,0.049,0.03,0.067
	c0.001,0.002,0.001,0.002,0.002,0.003c0.002,0.005,0.004,0.014,0.006,0.02c0.001,0.002,0.001,0.003,0.002,0.004
	c0.002,0.006,0.004,0.01,0.006,0.015c0.001,0.002,0.001,0.004,0.002,0.006c0.002,0.007,0.004,0.012,0.006,0.02
	c0.001,0.001,0,0.001,0.001,0.003c0.002,0.005,0.005,0.011,0.007,0.017c0.011,0.023,0.021,0.05,0.032,0.072v0.001
	c0.002,0.005,0.005,0.011,0.007,0.018c0,0.002,0,0.002,0.001,0.004c0.002,0.006,0.004,0.012,0.006,0.018
	c0.001,0.002,0.001,0.003,0.002,0.004c0.002,0.006,0.004,0.011,0.006,0.019c0.001,0.002,0.001,0.002,0.001,0.004
	c0.002,0.005,0.005,0.012,0.007,0.018l0.001,0.002c0.013,0.028,0.026,0.062,0.04,0.088l0.001,0.002
	c0.002,0.007,0.004,0.013,0.007,0.019c0,0.003,0.001,0.004,0.002,0.006c0.002,0.006,0.004,0.01,0.006,0.016
	c0.001,0.001,0.001,0.003,0.002,0.005c0.002,0.006,0.005,0.012,0.007,0.018c0.001,0.002,0.001,0,0.001,0.003
	c0.016,0.034,0.032,0.067,0.048,0.104c0.001,0.002,0.001,0.002,0.001,0.005c0.002,0.007,0.005,0.011,0.007,0.018l0.002,0.005
	c0.002,0.004,0.004,0.01,0.007,0.015c0,0.002,0.001,0.003,0.002,0.005c0.002,0.006,0.004,0.012,0.007,0.017
	c0,0.003,0,0.003,0.001,0.004c0.002,0.005,0.005,0.013,0.007,0.019l0,0c0.011,0.021,0.021,0.048,0.032,0.068
	c0,0.002,0.001,0.003,0.002,0.005c0.002,0.006,0.004,0.011,0.006,0.016c0.001,0.002,0.001,0.005,0.002,0.007
	c0.002,0.004,0.004,0.009,0.006,0.014c0.001,0.003,0.001,0.004,0.002,0.006c0.002,0.007,0.004,0.011,0.007,0.018
	c0.001,0.002,0.001,0.002,0.002,0.004c0.002,0.006,0.004,0.011,0.007,0.017l0.001,0.003c0.01,0.021,0.021,0.046,0.031,0.066
	l0.001,0.004c0.002,0.005,0.004,0.009,0.006,0.017c0.001,0.003,0.001,0.004,0.002,0.006c0.002,0.005,0.004,0.01,0.006,0.015
	c0.001,0.002,0.001,0.003,0.002,0.006c0.002,0.005,0.004,0.01,0.006,0.017c0.001,0.001,0.001,0.004,0.002,0.006
	c0.002,0.004,0.004,0.009,0.006,0.015c0,0.002,0.001,0.004,0.002,0.005c0.002,0.006,0.004,0.011,0.006,0.017l0,0
	c0.008,0.021,0.015,0.032,0.023,0.053c0.001,0.002,0.001,0.003,0.002,0.005c0.002,0.006,0.004,0.009,0.006,0.015
	c0.001,0.002,0.002,0.004,0.003,0.006c0.002,0.005,0.004,0.011,0.006,0.017c0.001,0,0.002,0.004,0.003,0.006
	c0.002,0.005,0.004,0.009,0.006,0.014c0.001,0.003,0.001,0.003,0.002,0.007c0.002,0.006,0.004,0.01,0.006,0.015
	c0,0.002,0.001,0.004,0.002,0.006c0.002,0.006,0.004,0.012,0.006,0.016c0.001,0.002,0.001,0.002,0.002,0.005
	c0.01,0.021,0.021,0.045,0.031,0.065l0.001,0.003c0.002,0.007,0.004,0.011,0.006,0.016c0.001,0.002,0.002,0.004,0.003,0.006
	c0.002,0.006,0.004,0.011,0.006,0.016c0.001,0.003,0.001,0.003,0.003,0.008c0.001,0.004,0.003,0.008,0.005,0.012
	c0.001,0.006,0.002,0.006,0.003,0.01c0.002,0.004,0.004,0.008,0.006,0.014c0.001,0.001,0.002,0.004,0.002,0.005
	c0.002,0.007,0.004,0.012,0.006,0.017c0.001,0.002,0.001,0.005,0.002,0.006c0.008,0.018,0.016,0.031,0.023,0.05v0.001
	c0.002,0.006,0.004,0.01,0.007,0.016c0.001,0.002,0.002,0.006,0.002,0.007c0.002,0.005,0.004,0.009,0.006,0.015
	c0,0.002,0.002,0.005,0.003,0.006c0.002,0.006,0.004,0.01,0.006,0.014c0.001,0.003,0.001,0.005,0.003,0.01
	c0.002,0.004,0.003,0.008,0.005,0.014c0.001,0.001,0.002,0.005,0.003,0.007c0.002,0.004,0.004,0.009,0.006,0.013
	c0.001,0.002,0.002,0.006,0.003,0.01c0.002,0.004,0.004,0.009,0.006,0.014c0.002,0.004,0.002,0.004,0.003,0.007
	c0.004,0.012,0.009,0.021,0.014,0.028c0.001,0.003,0-0.001,0,0.001c0.002,0.005,0.004,0.01,0.006,0.015
	c0.001,0.002,0.002,0.004,0.002,0.006c0.002,0.005,0.004,0.009,0.006,0.014c0.001,0.002,0.002,0.008,0.003,0.009
	c0.002,0.004,0.004,0.009,0.005,0.013c0.002,0.003,0.002,0.005,0.004,0.009s0.004,0.008,0.005,0.011
	c0.002,0.006,0.002,0.008,0.004,0.012c0.002,0.003,0.003,0.008,0.005,0.012c0,0.002,0.003,0.007,0.004,0.008
	c0.002,0.005,0.003,0.009,0.005,0.014c0,0.002,0.003,0.009,0.004,0.012c0.001,0.002,0.003,0.007,0.004,0.01
	c0.002,0.005,0.003,0.008,0.006,0.013c0.002,0.008,0.005,0.015,0.008,0.02c0.001,0.004,0.002,0.006,0.004,0.011
	c0.002,0.004,0.003,0.008,0.005,0.012c0.001,0.003,0.003,0.008,0.003,0.009c0.002,0.005,0.004,0.008,0.005,0.012
	s0.003,0.008,0.004,0.012c0.001,0.003,0.003,0.006,0.005,0.01c0.002,0.005,0.002,0.008,0.004,0.011
	c0.001,0.004,0.003,0.008,0.005,0.012c0.001,0.003,0.002,0.007,0.004,0.012c0.001,0.002,0.003,0.006,0.005,0.01
	c0,0.003,0.003,0.009,0.004,0.012s0.003,0.007,0.005,0.01c0.001,0.003,0.003,0.007,0.004,0.013c0.003,0.006,0.007,0.015,0.01,0.021
	c0.002,0.003,0.001,0.003,0.003,0.007s0.003,0.006,0.005,0.012c0.001,0.002,0.003,0.008,0.004,0.01
	c0.001,0.004,0.003,0.008,0.005,0.013c0.001,0.004,0.002,0.005,0.004,0.008c0.002,0.005,0.004,0.008,0.006,0.013
	c0.001,0.005,0.002,0.006,0.003,0.009c0.002,0.005,0.003,0.009,0.005,0.015c0.001,0.003,0.002,0.005,0.004,0.008
	c0.001,0.004,0.003,0.008,0.005,0.012c0.001,0.004,0.003,0.008,0.005,0.013c0.001,0.003,0.002,0.007,0.004,0.009
	c0.002,0.007,0.003,0.008,0.006,0.013c0.001,0.003,0.002,0.006,0.004,0.009c0.003,0.009,0.005,0.014,0.009,0.021
	c0.001,0.003,0.002,0.005,0.003,0.007c0.002,0.006,0.003,0.008,0.006,0.014c0.001,0.003,0.003,0.005,0.004,0.01
	c0.002,0.007,0.003,0.008,0.006,0.014c0.001,0.003,0.002,0.006,0.004,0.009s0.003,0.008,0.005,0.011
	c0.001,0.004,0.003,0.007,0.004,0.011c0.002,0.004,0.004,0.01,0.006,0.014c0.001,0.002,0.002,0.005,0.003,0.008
	s0.005,0.01,0.006,0.013c0.001,0.004,0.002,0.005,0.003,0.008c0.002,0.008,0.005,0.012,0.007,0.018
	c0.001,0.003,0.001,0.004,0.002,0.006c0.007,0.014,0.013,0.025,0.02,0.04l0,0c0.003,0.007,0.006,0.012,0.009,0.021
	c0,0,0.001,0.002,0.002,0.005c0.002,0.005,0.005,0.011,0.008,0.018c0,0.001,0.001,0.003,0.002,0.004
	c0.001,0.004,0.005,0.014,0.007,0.018c0.001,0.003,0.002,0.005,0.003,0.007c0.002,0.003,0.005,0.013,0.007,0.016
	c0,0.002,0.001,0.004,0.002,0.004c0.003,0.009,0.005,0.013,0.008,0.021c0,0.001,0.001,0.002,0.001,0.003
	c0.013,0.024,0.025,0.053,0.039,0.079c0,0.002,0.001,0.003,0.002,0.004c0.002,0.006,0.005,0.014,0.008,0.019
	c0,0.001,0.001,0.003,0.002,0.004c0.002,0.005,0.005,0.014,0.008,0.019c0,0.001,0.001,0.003,0.002,0.005
	c0.003,0.007,0.005,0.012,0.008,0.018c0,0.002,0.001,0.002,0.001,0.004c0.003,0.009,0.005,0.014,0.009,0.021
	c0,0,0,0.001,0.001,0.002c0.01,0.021,0.02,0.039,0.03,0.062c0,0.001,0,0.003,0.001,0.003c0.003,0.009,0.005,0.013,0.009,0.021
	c0,0,0.001,0.002,0.001,0.003c0.003,0.009,0.005,0.012,0.008,0.02c0,0,0.001,0.004,0.002,0.006c0.003,0.006,0.004,0.009,0.008,0.016
	c0,0.002,0.001,0.003,0.002,0.004c0.003,0.009,0.005,0.012,0.009,0.021c0,0,0,0.001,0.001,0.002c0.013,0.024,0.026,0.053,0.04,0.08
	c0,0,0,0,0,0.001c0.003,0.007,0.006,0.013,0.01,0.019c0,0.001,0,0.002,0.001,0.002c0.003,0.01,0.006,0.014,0.009,0.021
	c0,0.001,0,0.001,0.001,0.002c0.003,0.007,0.005,0.012,0.009,0.019c0,0,0.001,0.001,0.001,0.002
	c0.027,0.059,0.054,0.107,0.082,0.162c0.021,0.04,0.041,0.08,0.062,0.121c0.589,1.161,1.215,2.301,1.876,3.417v0.001
	c0.008,0.015,0.015,0.024,0.023,0.038c0,0,0,0,0,0.001c0.016,0.022,0.031,0.051,0.046,0.076c0,0.001,0,0.001,0.001,0.002
	c0.004,0.006,0.007,0.012,0.011,0.018c0,0,0,0.003,0.001,0.003c0.004,0.007,0.006,0.012,0.01,0.02c0,0.002,0.001,0.004,0.002,0.005
	c0.004,0.007,0.005,0.009,0.009,0.015c0,0.003,0.001,0.003,0.002,0.006c0.004,0.006,0.005,0.012,0.009,0.019
	c0,0.002,0.001,0.002,0.002,0.003c0.011,0.02,0.022,0.038,0.034,0.058c0,0,0,0,0,0.001c0.004,0.008,0.006,0.014,0.01,0.021
	c0.001,0.003,0.002,0.005,0.003,0.007c0.003,0.004,0.005,0.008,0.008,0.014c0.001,0.002,0.002,0.003,0.003,0.004
	c0.002,0.005,0.006,0.016,0.008,0.018c0.001,0.003,0.002,0.005,0.003,0.007c0.002,0.004,0.006,0.012,0.008,0.015
	c0.001,0.001,0.001,0.003,0.002,0.004c0.003,0.007,0.006,0.014,0.009,0.019c0.001,0.003,0.002,0.004,0.003,0.005
	c0.004,0.007,0.007,0.012,0.011,0.019c0.004,0.009,0.008,0.017,0.012,0.021c0,0.002,0.001,0.003,0.002,0.004
	c0.003,0.006,0.006,0.01,0.009,0.016c0.001,0.003,0.003,0.005,0.004,0.007c0.002,0.006,0.004,0.01,0.006,0.015
	c0.002,0.003,0.003,0.007,0.005,0.009c0.002,0.004,0.004,0.008,0.006,0.01c0.001,0.004,0.003,0.006,0.005,0.009
	c0.002,0.005,0.004,0.01,0.006,0.014c0.001,0.004,0.003,0.007,0.005,0.01c0.002,0.003,0.004,0.008,0.006,0.011
	c0.001,0.003,0.003,0.006,0.005,0.008c0.002,0.004,0.003,0.006,0.005,0.012c0.002,0.004,0.004,0.006,0.006,0.012
	c0.001,0.002,0.001,0.002,0.002,0.004c0.006,0.011,0.012,0.021,0.018,0.027c0.001,0.001,0,0,0.001,0.002
	c0.002,0.006,0.005,0.01,0.007,0.014c0.001,0.002,0.003,0.004,0.004,0.006c0.002,0.005,0.005,0.009,0.007,0.013
	c0.001,0.004,0.002,0.006,0.003,0.008c0.003,0.004,0.005,0.01,0.008,0.014c0.001,0.002,0.002,0.005,0.003,0.006
	c0.002,0.005,0.005,0.009,0.007,0.013c0.001,0.002,0.003,0.006,0.004,0.01c0.002,0.003,0.005,0.009,0.007,0.013
	c0.001,0.002,0.002,0.004,0.003,0.005c0.002,0.006,0.005,0.011,0.008,0.015l0.001,0.002c0.013,0.021,0.026,0.043,0.04,0.064v0.001
	c0.003,0.006,0.006,0.012,0.01,0.017c0.001,0.002,0,0,0.001,0.002c0.003,0.006,0.006,0.012,0.009,0.019l0.002,0.002
	c0.003,0.007,0.006,0.012,0.009,0.018c0.001,0.001,0,0,0.001,0.002c0.358,0.584,0.725,1.16,1.102,1.729l1.669-1.104
	c-1.819-2.753-3.41-5.679-4.729-8.689L197.257,777.033z"/>
<path fill="#E1E1E1" d="M288.866,797.982l1.264,1.551c1.642-1.337,3.209-2.76,4.699-4.26c0.001-0.002,0,0,0.001-0.002
	c0.004-0.009,0.008-0.013,0.012-0.017c0.001-0.002,0.001-0.002,0.004-0.002c0.004-0.005,0.008-0.009,0.012-0.013l0.002-0.003
	c0.008-0.004,0.012-0.009,0.016-0.017c0.001-0.001,0.002-0.002,0.003-0.003c0.004-0.004,0.007-0.008,0.015-0.012v-0.001
	c0.021-0.021,0.047-0.045,0.064-0.068c0.001-0.001,0.002-0.002,0.003-0.003c0.003-0.004,0.007-0.007,0.011-0.011
	c0.002-0.002,0.006-0.004,0.008-0.004c0.004-0.004,0.006-0.008,0.01-0.01c0.002-0.004,0.002-0.004,0.004-0.006
	c0.004-0.006,0.008-0.012,0.011-0.015c0.001-0.002,0.003-0.004,0.004-0.005c0.003-0.003,0.007-0.007,0.011-0.011
	c0-0.001,0.002-0.002,0.004-0.004c0.019-0.021,0.032-0.033,0.049-0.052c0,0,0.004-0.003,0.006-0.006
	c0.005-0.004,0.009-0.008,0.012-0.011c0.001-0.001,0.005-0.005,0.006-0.007c0.004-0.002,0.006-0.005,0.01-0.008
	c0.004-0.002,0.008-0.005,0.01-0.008s0.006-0.006,0.008-0.01c0.002-0.003,0.004-0.006,0.006-0.009
	c0.002-0.004,0.006-0.006,0.009-0.009s0.005-0.005,0.007-0.007c0.002-0.003,0.006-0.006,0.008-0.008c0-0.003,0.007-0.009,0.01-0.01
	c0.002-0.003,0.004-0.007,0.007-0.011c0.005-0.002,0.007-0.006,0.009-0.008c0.008-0.006,0.016-0.012,0.021-0.018
	c0.002-0.003,0.002-0.005,0.004-0.006c0.002-0.004,0.006-0.007,0.008-0.011c0.002-0.003,0.004-0.005,0.006-0.008
	c0.002-0.002,0.004-0.004,0.008-0.007s0.006-0.007,0.01-0.009c0.002-0.003,0.004-0.005,0.007-0.007
	c0.002-0.004,0.007-0.01,0.009-0.012s0.004-0.006,0.007-0.008c0.002-0.002,0.009-0.007,0.011-0.01
	c0.002-0.002,0.004-0.004,0.008-0.006c0.002-0.004,0.008-0.009,0.012-0.012c0-0.002,0.002-0.005,0.004-0.007
	c0.006-0.004,0.01-0.009,0.014-0.014c0-0.001,0.002-0.002,0.002-0.003c0.012-0.012,0.021-0.021,0.031-0.03c0,0,0,0,0.002,0
	c0.004-0.007,0.008-0.012,0.014-0.018c0,0,0,0,0.002-0.001c0.006-0.006,0.011-0.01,0.015-0.018c0.003,0,0.003-0.002,0.005-0.002
	c0.004-0.006,0.007-0.009,0.014-0.016c0.002,0,0.002-0.002,0.004-0.003c0.006-0.005,0.008-0.008,0.014-0.014
	c0.002-0.002,0.002-0.003,0.004-0.004c0.006-0.005,0.008-0.01,0.014-0.016c0,0,0,0,0.002,0c0.025-0.026,0.053-0.057,0.078-0.081
	c0,0,0,0,0-0.001c0.004-0.006,0.01-0.011,0.016-0.019l0,0c0.004-0.006,0.011-0.011,0.017-0.018l0,0
	c0.684-0.71,1.347-1.435,1.991-2.176l-1.508-1.312C293.814,793.586,291.421,795.9,288.866,797.982z"/>
<path fill="#E1E1E1" d="M301.829,783.115l1.708,1.041c1.768-2.904,3.295-5.969,4.556-9.168l-1.858-0.733
	C305.025,777.316,303.544,780.298,301.829,783.115z"/>
<path fill="#E1E1E1" d="M309.055,764.771l1.959,0.399c0.146-0.699,0.275-1.396,0.396-2.104c0-0.001,0-0.001,0-0.001
	c0.007-0.039,0.013-0.076,0.021-0.114c0-0.001,0-0.002,0-0.003c0-0.008,0-0.014,0.002-0.021c0-0.001,0-0.002,0.003-0.004
	c0-0.008,0-0.011,0.002-0.018c0-0.002,0-0.004,0-0.005c0.003-0.013,0.003-0.018,0.005-0.021c0,0,0-0.001,0-0.002
	c0-0.008,0.002-0.014,0.002-0.021s0-0.007,0.002-0.009c0-0.006,0.002-0.013,0.002-0.019c0-0.002,0-0.004,0.002-0.006
	c0-0.004,0.002-0.014,0.002-0.021c0-0.003,0.001-0.005,0.001-0.007c0.001-0.004,0.002-0.011,0.002-0.015
	c0-0.003,0.001-0.005,0.001-0.009s0.002-0.015,0.002-0.019c0-0.003,0.001-0.006,0.001-0.008c0.001-0.008,0.002-0.014,0.003-0.021
	c0,0,0-0.002,0.001-0.006c0.001-0.007,0.003-0.013,0.003-0.019c0-0.002,0-0.004,0.002-0.007c0-0.004,0-0.013,0.002-0.019
	c0-0.002,0-0.006,0-0.009c0-0.004,0.003-0.01,0.003-0.014c0.003-0.004,0.003-0.006,0.003-0.009c0-0.005,0-0.011,0.002-0.017
	c0-0.003,0-0.007,0-0.011c0.002-0.004,0.002-0.007,0.002-0.011c0.004-0.007,0.004-0.016,0.006-0.021c0-0.004,0-0.006,0-0.011
	c0-0.004,0.002-0.008,0.002-0.013c0-0.002,0.002-0.009,0.002-0.011c0-0.004,0-0.009,0.002-0.015c0-0.005,0.001-0.005,0.001-0.009
	c0-0.005,0.001-0.009,0.002-0.014s0.001-0.005,0.001-0.01s0.001-0.009,0.002-0.015c0-0.002,0.001-0.007,0.001-0.009
	c0.003-0.02,0.007-0.034,0.012-0.054l0,0c0-0.007,0-0.012,0.003-0.017c0-0.003,0-0.006,0.002-0.008c0-0.007,0-0.012,0.002-0.018
	v-0.005c0-0.006,0.002-0.012,0.002-0.02c0-0.002,0,0,0-0.003c0.006-0.03,0.01-0.062,0.016-0.097v0.011
	c0.001-0.006,0.001-0.013,0.002-0.02c0-0.002,0,0,0-0.002c0.255-1.646,0.443-3.312,0.562-4.994c0-0.007,0.002-0.015,0.002-0.021
	v-0.001c0.002-0.023,0.002-0.053,0.004-0.078v-0.003c0-0.006,0.002-0.013,0.002-0.019v-0.005c0-0.006,0-0.011,0-0.02
	c0-0.003,0,0,0-0.003c0.002-0.023,0.004-0.052,0.006-0.074v-0.005c0-0.007,0-0.013,0-0.019c0-0.002,0-0.003,0-0.006
	c0-0.005,0.002-0.01,0.002-0.018c0-0.003,0-0.005,0-0.007c0-0.007,0.001-0.011,0.001-0.018c0-0.002,0-0.004,0-0.006
	c0-0.005,0-0.011,0.001-0.018c0-0.002,0,0.002,0,0c0.001-0.013,0.001-0.021,0.002-0.031c0-0.003,0-0.008,0-0.01
	c0-0.005,0-0.011,0-0.015c0-0.002,0-0.008,0.001-0.01c0-0.005,0-0.009,0-0.013c0-0.007,0-0.007,0-0.013s0.001-0.01,0.001-0.015
	c0-0.002,0-0.007,0-0.009c0-0.005,0-0.009,0.002-0.014c0-0.004,0-0.01,0-0.012c0-0.009,0-0.018,0-0.021s0-0.006,0.003-0.011
	c0-0.006,0-0.01,0-0.013c0-0.004,0-0.009,0-0.013s0-0.008,0-0.011c0-0.004,0-0.012,0-0.016c0-0.003,0-0.007,0.002-0.012
	c0-0.004,0-0.008,0-0.012s0-0.007,0-0.011c0-0.006,0-0.015,0-0.02c0-0.002,0-0.004,0-0.007c0-0.008,0.003-0.016,0.003-0.021
	c0-0.001,0-0.002,0-0.003c0-0.009,0-0.013,0-0.021c0-0.003,0-0.006,0-0.009c0-0.004,0-0.014,0-0.018c0-0.002,0-0.006,0-0.01
	s0.002-0.012,0.002-0.017c0-0.002,0-0.004,0-0.006c0-0.008,0-0.015,0-0.021c0,0,0-0.003,0-0.004
	c0.002-0.018,0.002-0.028,0.002-0.046c0-0.001,0-0.003,0-0.003c0-0.008,0-0.016,0.003-0.021c0-0.002,0-0.002,0-0.004
	c0-0.01,0-0.014,0-0.021c0-0.002,0-0.002,0-0.005c0-0.009,0.002-0.013,0.002-0.021c0-0.002,0-0.002,0-0.004
	c0-0.021,0.003-0.046,0.005-0.068c0,0,0,0,0-0.001c0-0.01,0-0.017,0-0.021c0,0,0,0,0-0.002c0-0.008,0.002-0.016,0.002-0.021
	c0-0.001,0-0.001,0-0.003c0.023-0.453,0.045-0.907,0.062-1.364l-1.997-0.063C310.109,758.249,309.718,761.556,309.055,764.771z"/>
<path fill="#E1E1E1" d="M252.25,811c-2.591,0-5.198-0.172-7.748-0.513l-0.265,1.979l0.004,0.001c0.008,0,0.016,0.002,0.023,0.002
	c0.004,0.001,0.002,0.001,0.006,0.002c0.008,0,0.017,0.002,0.024,0.003l0.004,0.001c0.01,0.001,0.02,0.006,0.03,0.009
	c0.002,0-0.001,0,0,0c0.009,0,0.018,0.002,0.027,0.003c0.002,0.001,0.004,0.001,0.006,0.001c0.008,0.001,0.016,0.002,0.024,0.004
	h0.004c0.02,0.002,0.039,0.005,0.059,0.008c0.002,0,0.002,0,0.004,0c0.008,0.002,0.017,0.002,0.025,0.004c0.002,0,0.002,0,0.004,0
	c0.02,0.003,0.039,0.006,0.059,0.008c0.002,0,0.001,0,0.003,0c0.009,0.002,0.019,0.003,0.028,0.004c0.002,0,0,0,0.002,0
	c0.03,0.005,0.06,0.013,0.089,0.017h0.003c0.03,0.004,0.061,0.008,0.09,0.012h0.002c0.03,0.004,0.061,0.008,0.091,0.012h0.001
	c1.52,0.188,3.057,0.316,4.609,0.393h0.001c0.031,0.001,0.062,0.003,0.094,0.005l0,0c0.031,0,0.062,0.002,0.093,0.004h0.002
	c0.01,0,0.02,0,0.03,0.001l0,0c0.021,0.001,0.042,0.001,0.062,0.003c0.002,0,0,0,0.001,0c0.01,0,0.02,0,0.03,0.001h0.001
	c0.021,0.001,0.041,0.001,0.062,0.003h0.002c0.009,0,0.019,0,0.029,0c0.002,0,0,0,0.002,0c0.03,0.002,0.061,0.003,0.092,0.004h0.003
	c0.03,0.002,0.061,0.003,0.091,0.004h0.003c0.01,0,0.02,0,0.029,0.001h0.001c0.02,0.001,0.041,0.001,0.061,0.002
	c0.002,0.002,0.003,0.002,0.005,0.002c0.009,0,0.018,0,0.026,0c0.002,0,0.002,0,0.004,0c0.02,0,0.04,0.002,0.06,0.002
	c0.002,0,0.003,0,0.005,0c0.008,0.002,0.017,0.002,0.025,0.003c0.002,0,0.003,0,0.005,0c0.02,0,0.04,0.001,0.06,0.002
	c0.002,0,0.002,0,0.004,0c0.009,0,0.018,0,0.026,0c0.002,0,0.003,0,0.005,0c0.02,0.005,0.04,0.005,0.06,0.005h0.004
	c0.009,0.001,0.018,0.001,0.026,0.002c0.002,0,0.004,0,0.006,0c0.009,0,0.021,0,0.029,0c0.011,0.001,0.021,0.001,0.031,0.002h0.001
	c0.01,0,0.019,0,0.028,0c0.002,0,0.003,0,0.005,0c0.009,0,0.018,0.001,0.026,0.001h0.003c0.021,0.001,0.04,0.001,0.06,0.002
	c0.002,0,0.004,0,0.006,0c0.009,0,0.017,0.001,0.025,0.001c0.002,0,0.002,0,0.004,0c0.02,0,0.04,0.001,0.06,0.002
	c0.002,0,0.003,0,0.006,0c0.008,0,0.016,0,0.024,0c0.002,0,0.004,0,0.006,0c0.02,0,0.04,0.001,0.059,0.002c0.002,0,0.003,0,0.006,0
	c0.008,0,0.016,0,0.024,0c0.002,0,0.004,0,0.006,0c0.009,0,0.018,0.001,0.027,0.001c0.002,0,0.001,0,0.003,0
	c0.01,0.001,0.02,0.001,0.029,0.001c0.002,0,0.004,0,0.006,0c0.008,0,0.016,0,0.023,0c0.004,0,0.004,0,0.008,0
	c0.008,0.001,0.016,0.001,0.024,0.001c0.002,0,0.003,0,0.005,0c0.01,0.001,0.02,0.001,0.029,0.001c0.002,0,0.003,0,0.005,0
	c0.008,0,0.016,0,0.024,0c0.004,0,0.003,0,0.007,0c0.008,0,0.016,0.001,0.023,0.001c0.002,0,0.004,0,0.006,0
	c0.01,0.001,0.02,0.001,0.029,0.001c0.002,0,0.002,0,0.004,0c0.008,0,0.017,0,0.024,0c0.002,0,0.007,0,0.009,0
	c0.007,0,0.014,0,0.021,0c0.002,0,0.006,0.001,0.008,0.001c0.009,0,0.019,0,0.028,0.001h0.002c0.009,0,0.018,0,0.026,0
	c0.002,0,0.007,0,0.009,0c0.007,0,0.014,0,0.021,0c0.002,0,0.006,0,0.008,0c0.009,0,0.018,0,0.027,0.001h0.002
	c0.01,0,0.019,0,0.029,0.001c0.002,0,0.006,0,0.008,0c0.007,0,0.015,0,0.022,0c0.002,0,0.006,0,0.008,0c0.008,0,0.017,0,0.024,0
	c0.002,0,0.002,0,0.004,0c0.01,0,0.02,0,0.029,0c0.002,0,0.005,0.001,0.007,0.001c0.007,0,0.015,0,0.021,0c0.004,0,0.005,0,0.009,0
	c0.008,0.001,0.016,0.001,0.023,0.001c0.002,0,0.003,0,0.005,0c0.01,0,0.02,0,0.029,0c0.002,0,0.003,0,0.005,0
	c0.008,0,0.016,0,0.024,0c0.004,0,0.004,0,0.008,0c0.007,0,0.015,0,0.021,0c0.002,0,0.005,0,0.007,0c0.01,0,0.02,0.001,0.029,0.001
	c0.002,0,0.002,0,0.004,0c0.008,0,0.017,0,0.025,0c0.002,0,0.007,0.001,0.009,0.001c0.007,0,0.014,0,0.021,0
	c0.002,0,0.006,0,0.008,0c0.009,0,0.018,0,0.027,0c0.002,0,0.002,0,0.004,0c0.009,0,0.018,0,0.026,0c0.002,0,0.007,0,0.009,0
	c0.006,0,0.013,0,0.021,0c0.002,0,0.007,0,0.01,0c0.009,0,0.017,0,0.026,0c0.002,0,0,0,0.002,0c0.01,0,0.02,0,0.029,0.001
	c0.002,0,0.006,0,0.008,0c0.007,0,0.015,0,0.021,0c0.004,0,0.005,0,0.009,0c0.008,0,0.015,0,0.023,0c0.002,0,0.004,0,0.006,0
	c0.01,0,0.019,0.001,0.028,0.001c0.004,0,0.004,0,0.008,0c0.007,0,0.014,0,0.021,0c0.004,0,0.006,0,0.01,0c0.007,0,0.014,0,0.021,0
	c0.004,0,0.004,0,0.008,0c0.009,0,0.021,0,0.028,0c0.002,0,0.004,0,0.006,0c0.007,0,0.015,0,0.022,0c0.004,0,0.005,0,0.009,0
	c0.007,0,0.014,0,0.021,0c0.002,0,0.006,0,0.008,0c0.009,0,0.019,0,0.029,0c0.002,0,0,0,0.002,0c0.009,0,0.017,0,0.026,0
	c0.002,0,0.007,0,0.009,0c0.007,0,0.014,0,0.021,0c0.002,0,0.006,0,0.008,0c0.009,0,0.019,0,0.029,0c0.008,0,0.015,0,0.022,0
	c0.002,0,0.005,0,0.007,0c0.004,0,0.011,0,0.015,0c0.003,0,0.006,0,0.009,0c0.004,0,0.009,0,0.013,0c0.003,0,0.006,0,0.01,0
	c0.004,0,0.009,0,0.013,0c0.003,0,0.006,0,0.009,0c0.006,0,0.01,0,0.017,0c0.002,0,0.003,0,0.006,0c0.008,0,0.014,0,0.022,0
	c0.002,0,0.005,0,0.007,0c0.006,0,0.01,0,0.016,0c0.003,0,0.005,0,0.008,0c0.004,0,0.01,0,0.015,0c0.003,0,0.006,0,0.009,0
	c0.004,0,0.01,0,0.014,0c0.003,0,0.006,0,0.009,0c0.006,0,0.01,0,0.016,0c0.002,0,0.004,0,0.006,0c0.008,0,0.014,0,0.022,0
	c0.002,0,0.004,0,0.006,0c0.006,0,0.014,0,0.02,0c0.002,0,0.004,0,0.008,0c0.006-0.001,0.013-0.001,0.017-0.001
	c0.002,0,0.005,0,0.008,0c0.007,0,0.013,0,0.017,0c0.002,0,0.008,0,0.011,0c0.006,0,0.01,0,0.016,0c0.005,0,0.007,0,0.009,0
	c0.008,0,0.015,0,0.021,0c0.002-0.001,0.004-0.001,0.006-0.001c0.006,0,0.013,0,0.019,0c0.002,0,0.004,0,0.009,0s0.013,0,0.017,0
	c0.003,0,0.006,0,0.01,0s0.012,0,0.017,0c0.004,0,0.006,0,0.008,0c0.007,0,0.011,0,0.017,0c0.004,0,0.006,0,0.008,0
	c0.018,0,0.027,0,0.045,0c0.002,0,0.005,0,0.007,0c0.005,0,0.014,0,0.019,0c0.004,0,0.006,0,0.01,0s0.012,0,0.017-0.001
	c0.004,0,0.006,0,0.008,0c0.004,0,0.013,0,0.017,0s0.006,0,0.008,0c0.009,0,0.013,0,0.021-0.001c0,0,0,0,0.002,0
	c0.008,0,0.018,0,0.021,0c0.002,0,0.004,0,0.007,0c0.006,0,0.012,0,0.019,0c0.002,0,0.006,0,0.008,0c0.006,0,0.013,0,0.017,0
	c0.002,0,0.007,0,0.009,0c0.004,0,0.014,0,0.02,0c0.002,0,0.004,0,0.006,0c0.009,0,0.017,0,0.021,0c0,0,0.002,0,0.004,0
	c0.009-0.001,0.015-0.001,0.021-0.001c0.002,0,0.006,0,0.008,0c0.006,0,0.01,0,0.017-0.001c0.002,0,0.006,0,0.008,0
	c0.004,0,0.012,0,0.017,0c0.002,0,0.005,0,0.009,0s0.012,0,0.016,0s0.006,0,0.011,0c0.006,0,0.01,0,0.016,0c0.002,0,0.007,0,0.009,0
	c0.008,0,0.016,0,0.021,0l0.002-0.001c0.011,0,0.013,0,0.021,0c0.006,0,0.008,0,0.01,0c0.004,0,0.013-0.001,0.017-0.001
	s0.006,0,0.008,0c0.005,0,0.013,0,0.017,0c0.005,0,0.007,0,0.011,0c0.006,0,0.01,0,0.017,0c0.002,0,0.004,0,0.006,0
	c0.01,0,0.018,0,0.021,0c0,0,0,0,0.002,0C253.277,813,253.284,813,253.29,813c0.003,0,0.005,0,0.007,0
	c0.008,0,0.012-0.001,0.02-0.001c0.002,0,0.004,0,0.008,0c0.006,0,0.014,0,0.018,0c0.002,0,0.004,0,0.01,0s0.01,0,0.017,0
	c0.002,0,0.004,0,0.006,0c0.017,0,0.028-0.001,0.045-0.002c0.002,0,0.007,0,0.009,0c0.006,0,0.01,0,0.016,0c0.005,0,0.008,0,0.012,0
	s0.012,0,0.016,0c0.002,0,0.006,0,0.01,0s0.015,0,0.019,0c0.002,0,0.004-0.001,0.006-0.001c0.009,0,0.013,0,0.021,0
	c0.002,0,0.002,0,0.002-0.001c0.012,0,0.018,0,0.022,0h0.002c0.009,0,0.013,0,0.021,0c0.002,0,0.005,0,0.008,0
	c0.004,0,0.015,0,0.019-0.001c0.002,0,0.008,0,0.01,0c0.004,0,0.01,0,0.016,0c0.002-0.001,0.006-0.001,0.008-0.001
	c0.004,0,0.014,0,0.018,0c0.002,0,0.005,0,0.007,0c0.009,0,0.016,0,0.021,0c0.002,0,0.004,0,0.008,0
	c0.008-0.001,0.013-0.001,0.019-0.001c0.004,0,0.007,0,0.01,0c0.004-0.001,0.011-0.001,0.015-0.001s0.006,0,0.01,0s0.013,0,0.017,0
	c0.003,0,0.005,0,0.009,0s0.01,0,0.017,0c0.002,0,0.006-0.001,0.008-0.001c0.008,0,0.017,0,0.021-0.001c0.002,0,0.004,0,0.008,0
	c0.008,0,0.012,0,0.018,0c0.004,0,0.007,0,0.012,0c0.004,0,0.01,0,0.014,0c0.005,0,0.007-0.001,0.011-0.001c0.005,0,0.011,0,0.015,0
	c0.004-0.001,0.006-0.001,0.01-0.001c0.006,0,0.012,0,0.016,0s0.006,0,0.01,0c0.008,0,0.012,0,0.021,0c0.002,0,0.002,0,0.004,0
	c0.01-0.001,0.015-0.001,0.021-0.002c0.002,0,0.007,0,0.009,0c0.004,0,0.01,0,0.015,0c0.006,0,0.008,0,0.012,0s0.01,0,0.015,0
	c0.004,0,0.008,0,0.01-0.001c0.004,0,0.01,0,0.014,0c0.005-0.001,0.007-0.001,0.011-0.001c0.007,0,0.011,0,0.019,0
	c0.002,0,0.005,0,0.005,0c0.01,0,0.018,0,0.021-0.001c0.002,0,0.004,0,0.008,0c0.006,0,0.013-0.001,0.019-0.001
	c0.002,0,0.004,0,0.009,0c0.004,0,0.01,0,0.018,0c0.002,0,0.004,0,0.01,0c0.004,0,0.01-0.001,0.016-0.001c0.002,0,0.004,0,0.008,0
	c0.008-0.001,0.012-0.001,0.021-0.001c0.002,0,0.004,0,0.006,0c0.009,0,0.015,0,0.021,0c0.002,0,0.006,0,0.008,0
	c0.006-0.001,0.01-0.001,0.018-0.001c0.004-0.001,0.006-0.001,0.01-0.001s0.01,0,0.016,0c0.005,0,0.007,0,0.009,0
	c0.004,0,0.013,0,0.017,0c0.002-0.001,0.004-0.001,0.008-0.001c0.008,0,0.014-0.001,0.02-0.001c0.002,0,0.004,0,0.006,0
	c0.01,0,0.016,0,0.021,0c0.002,0,0.002,0,0.002,0c0.01-0.001,0.014-0.001,0.021-0.002c0.002,0,0.004,0,0.006,0
	c0.005,0,0.015,0,0.019,0c0.002,0,0.004,0,0.008,0c0.006,0,0.012,0,0.017-0.001c0.003,0,0.007,0,0.009,0
	c0.006-0.001,0.01-0.001,0.017-0.001c0.002,0,0.006,0,0.01,0c0.017,0,0.026-0.001,0.043-0.002c0.004,0,0.006,0,0.009,0
	c0.004,0,0.014,0,0.018,0c0.002,0,0.004,0,0.008,0c0.004-0.001,0.012-0.001,0.018-0.001c0.002-0.001,0.004-0.001,0.008-0.001
	s0.013,0,0.017,0c0.002,0,0.004,0,0.006,0c0.011,0,0.017-0.001,0.021-0.001l0,0c0.012-0.001,0.018-0.001,0.022-0.001
	c0.002,0,0.004,0,0.006,0c0.005,0,0.013-0.001,0.017-0.001c0.005,0,0.008,0,0.012-0.001c0.004,0,0.01,0,0.014,0s0.006,0,0.008,0
	c0.004,0,0.015,0,0.019-0.001c0.002,0,0.004,0,0.008,0c0.011-0.001,0.015-0.001,0.021-0.001c0,0,0,0,0.002,0
	c0.009,0,0.017,0,0.021-0.001c0.002,0,0.002,0,0.005,0c0.007-0.001,0.013-0.001,0.019-0.001c0.003,0,0.005,0,0.009,0
	s0.012,0,0.017,0c0.004-0.001,0.006-0.001,0.008-0.001c0.004,0,0.013-0.001,0.018-0.001c0.004,0,0.006,0,0.008,0
	c0.006,0,0.014,0,0.02,0c0.002-0.001,0.004-0.001,0.006-0.001c0.009,0,0.017-0.001,0.021-0.001l0,0c0.01,0,0.016,0,0.021-0.001
	c0.002,0,0.004,0,0.006,0c0.007-0.001,0.013-0.001,0.02-0.001c0.004,0,0.006,0,0.008,0c0.004,0,0.012,0,0.018-0.001
	c0.002,0,0.004,0,0.008,0c0.006-0.001,0.012-0.001,0.02-0.001c0.002,0,0.004,0,0.004,0c0.017-0.001,0.027-0.002,0.045-0.002
	c0.002,0,0.004,0,0.009,0c0.004,0,0.01-0.001,0.015-0.001c0.002,0,0.006-0.001,0.012-0.001c0.004,0,0.008,0,0.012,0s0.008,0,0.012,0
	s0.012-0.001,0.016-0.001c0.002-0.001,0.006-0.001,0.008-0.001c0.011,0,0.015,0,0.021,0h0.002c0.009-0.001,0.015-0.005,0.021-0.005
	c0.002,0,0.004,0,0.006,0c0.007,0,0.013,0,0.019,0c0.004,0,0.006,0,0.008,0c0.004,0,0.013-0.002,0.017-0.002s0.006,0,0.008,0
	c0.004,0,0.015,0,0.019,0c0.002,0,0.004,0,0.007,0c0.006-0.004,0.012-0.004,0.021-0.004c0,0,0.002,0,0.004,0
	c0.01,0,0.016,0,0.021-0.002c0.002,0,0.002,0,0.002,0c0.009,0,0.013,0,0.021,0c0.002,0,0.006,0,0.008-0.001
	c0.004,0,0.013-0.001,0.017-0.001c0.005,0,0.007,0,0.009,0c0.004,0,0.012,0,0.018-0.001c0.002,0,0.006,0,0.008,0
	c0.007-0.001,0.011-0.001,0.017-0.001c0.002,0,0.007,0,0.009,0c0.008,0,0.014-0.001,0.021-0.002c0.002,0,0.004,0,0.004,0
	c0.007,0,0.013,0,0.021,0c0.002,0,0.004-0.001,0.008-0.001s0.013-0.001,0.017-0.001c0.002,0,0.006,0,0.01,0
	c0.005,0,0.011,0,0.015-0.001c0.002,0,0.006,0,0.01-0.001c0.005,0,0.011,0,0.016,0c0.004,0,0.006,0,0.008,0
	c0.01-0.001,0.017-0.002,0.022-0.002l0,0c0.009,0,0.013,0,0.021-0.001c0.004,0,0.006,0,0.01-0.001c0.004,0,0.01,0,0.017,0
	c0.002,0,0.004,0,0.008,0c0.005-0.001,0.013-0.001,0.017-0.002c0.003,0,0.005,0,0.008,0c0.006,0,0.013,0,0.02,0
	c0.002-0.001,0.004-0.001,0.006-0.001c0.01-0.001,0.014-0.001,0.021-0.001c0,0,0,0,0.002,0c0.009,0,0.016-0.001,0.021-0.002
	c0.004,0,0.006,0,0.009,0c0.004,0,0.011,0,0.015,0c0.005-0.001,0.008-0.001,0.012-0.001c0.004-0.001,0.01-0.001,0.016-0.001
	c0.002,0,0.005,0,0.008,0c0.004,0,0.013-0.001,0.018-0.002c0.002,0,0.004,0,0.008,0c0.01,0,0.013,0,0.021-0.001c0,0,0.001,0,0.002,0
	c0.011-0.001,0.017-0.001,0.021-0.001c0.002,0,0.008,0,0.011,0c0.004-0.001,0.01-0.002,0.015-0.002c0.003,0,0.008,0,0.01,0
	c0.004,0,0.01,0,0.015-0.001c0.004,0,0.007,0,0.01-0.001c0.004,0,0.011,0,0.017,0c0.002,0,0.006,0,0.008,0
	c0.006-0.001,0.014-0.002,0.02-0.002c0.001,0,0.003,0,0.005,0c0.011,0,0.017-0.001,0.021-0.002h0.002c0.011,0,0.014,0,0.021,0
	c0.002-0.001,0.006-0.001,0.008-0.001c0.004,0,0.012-0.001,0.017-0.001c0.004,0,0.007,0,0.009,0c0.004,0,0.012-0.001,0.018-0.002
	c0.002,0,0.004,0,0.008,0c0.007,0,0.014,0,0.02-0.001c0.002,0,0.003,0,0.005,0c0.009-0.001,0.017-0.001,0.021-0.001
	c0,0,0.003,0,0.006-0.001c0.006,0,0.012-0.001,0.018-0.001c0.002,0,0.006,0,0.008,0c0.004,0,0.015-0.001,0.019-0.002
	c0.002,0,0.004,0,0.008,0s0.013,0,0.017-0.001c0.002,0,0.006,0,0.008,0c0.007-0.001,0.012-0.001,0.018-0.001
	c0.003,0,0.005,0,0.007,0c0.009-0.001,0.015-0.002,0.021-0.002l0,0c0.009,0,0.015-0.001,0.021-0.002c0.002,0,0.004,0,0.006,0
	c0.006,0,0.016,0,0.02-0.001c0.002,0,0.006,0,0.008-0.001c0.004,0,0.012,0,0.016,0c0.002,0,0.006,0,0.008-0.001
	c0.004,0,0.014-0.001,0.019-0.001c0.002,0,0.004,0,0.006,0c0.019-0.002,0.028-0.002,0.048-0.008h0.002c0.01,0,0.014,0,0.021,0
	c0.002,0,0.004,0,0.006,0c0.004-0.002,0.014-0.002,0.018-0.002c0.002,0,0.006,0,0.008,0c0.004,0,0.012-0.002,0.016-0.002
	c0.003,0,0.005,0,0.007,0c0.007,0,0.015,0,0.021-0.002c0,0,0.003,0,0.005,0c0.011,0,0.017-0.002,0.021-0.003
	c0.002,0,0.002,0,0.006,0c0.008,0,0.012,0,0.021-0.001c0.002,0,0.006,0,0.008-0.001c0.004,0,0.013,0,0.017,0
	c0.002,0,0.006,0,0.01-0.001c0.004,0,0.011-0.001,0.015-0.001c0.003,0,0.005,0,0.009,0c0.006-0.001,0.014-0.002,0.021-0.002
	c0.002,0,0.004,0,0.006,0c0.019-0.001,0.026-0.002,0.045-0.003c0-0.001,0.002-0.001,0.006-0.001c0.007,0,0.013,0,0.019-0.001
	c0.002,0,0.004,0,0.006,0c0.004-0.001,0.013-0.001,0.017-0.001c0.005,0,0.007,0,0.009-0.001c0.006-0.001,0.015-0.001,0.021-0.001
	c0.002,0,0.004,0,0.004,0c0.019-0.002,0.026-0.002,0.047-0.004c0,0,0.002,0,0.004,0c0.007,0,0.015-0.001,0.021-0.002
	c0.002,0,0.004,0,0.006,0c0.004,0,0.015-0.001,0.019-0.001c0.003,0,0.005-0.001,0.007-0.001c0.006,0,0.012,0,0.021-0.001
	c0.002,0,0.004,0,0.004,0c0.019-0.001,0.026-0.003,0.047-0.003c0,0,0.002-0.001,0.004-0.001c0.009-0.001,0.015-0.001,0.021-0.001
	c0.002,0,0.004,0,0.006,0c0.004-0.001,0.015-0.002,0.019-0.002c0.003,0,0.005,0,0.007,0c0.008-0.001,0.01-0.001,0.021-0.002
	c0.002,0,0.002,0,0.004,0c0.019-0.002,0.028-0.002,0.047-0.004c0.002,0,0.002,0,0.002,0c0.009,0,0.015,0,0.021-0.003
	c0.003,0,0.005,0,0.007,0c0.004,0,0.012,0,0.018,0c0.003,0,0.005-0.002,0.009-0.002s0.012,0,0.016,0c0.002,0,0.006,0,0.009-0.002
	c0.006,0,0.015,0,0.021-0.001c0.002,0,0.004,0,0.004,0c0.019-0.001,0.029-0.004,0.048-0.004c0-0.003,0.002-0.003,0.004-0.003
	c0.006,0,0.012,0,0.019,0c0.004,0,0.006-0.002,0.008-0.002c0.004,0,0.014,0,0.018,0c0.002,0,0.004,0,0.006,0
	c0.01-0.003,0.012-0.003,0.021-0.003h0.002c0.02-0.003,0.029-0.003,0.047-0.005c0.002,0,0.004,0,0.006,0
	c0.006-0.001,0.012-0.002,0.018-0.002c0.002,0,0.004,0,0.006,0c0.006-0.001,0.017-0.002,0.021-0.002c0,0,0.004,0,0.007,0
	c0.006-0.001,0.012-0.002,0.02-0.002c0,0,0.002,0,0.004,0c0.018-0.002,0.027-0.002,0.047-0.004h0.002
	c0.008-0.001,0.012-0.001,0.021-0.002c0.002,0,0.002,0,0.004,0c0.006-0.001,0.013-0.002,0.021-0.002c0,0,0.002,0,0.004,0
	c0.008-0.001,0.015-0.001,0.021-0.002c0,0,0.002,0,0.004,0c0.018-0.003,0.031-0.003,0.047-0.005
	c0.008-0.001,0.016-0.003,0.021-0.003h0.005c0.008-0.002,0.012-0.002,0.02-0.003c0.004,0,0.004,0,0.006,0
	c0.008-0.001,0.014-0.002,0.021-0.002c0.002,0,0.002,0,0.004,0c0.008-0.002,0.017-0.003,0.021-0.003
	c0.021-0.002,0.03-0.004,0.047-0.005c0,0,0.005,0,0.009,0c0.006-0.001,0.012-0.002,0.018-0.002c0.002,0,0.004,0,0.006,0
	c0.006-0.001,0.014-0.002,0.021-0.002c0,0,0.002,0,0.004,0c0.008-0.002,0.012-0.002,0.021-0.002c0.002,0,0.002,0,0.002,0
	c0.021-0.002,0.03-0.004,0.047-0.005h0.005c0.01-0.001,0.014-0.001,0.021-0.002c0,0,0.003,0,0.005-0.001c0.006,0,0.014,0,0.02-0.001
	c0.002,0,0.004,0,0.006-0.001c0.006,0,0.013,0,0.019-0.001c0.004,0,0.006-0.001,0.008-0.001c0.017-0.001,0.027-0.002,0.046-0.005
	c0,0,0.002,0,0.004,0c0.008,0,0.012,0,0.02-0.002h0.006c0.004,0,0.014-0.002,0.018-0.002s0.006,0,0.008,0
	c0.008-0.001,0.012-0.003,0.021-0.003h0.002c0.019-0.003,0.03-0.004,0.05-0.005c0,0,0-0.002,0.002-0.002c0.008,0,0.012,0,0.02,0
	c0.002-0.002,0.006-0.002,0.008-0.003c0.006,0,0.012,0,0.018-0.001c0.004,0,0.006,0,0.008-0.001c0.006,0,0.012,0,0.019-0.001
	c0,0,0.002-0.001,0.005-0.001c0.018-0.001,0.027-0.003,0.045-0.005l0,0c0.01,0,0.016-0.002,0.021-0.002c0,0,0.002,0,0.004,0
	c0.007-0.001,0.014-0.002,0.021-0.002c0.002,0,0.004,0,0.006-0.001c0.006-0.001,0.012-0.001,0.02-0.001
	c0.002,0,0.004-0.001,0.006-0.001c0.008-0.001,0.012-0.001,0.021-0.002c0.002,0,0.002,0,0.004,0
	c0.018-0.001,0.027-0.003,0.045-0.005c0.002,0,0.002,0,0.002,0c0.009,0,0.016-0.001,0.021-0.002c0,0,0.002,0,0.004,0
	c0.006-0.001,0.012-0.002,0.021-0.002c0,0,0.002,0,0.004,0c0.011-0.003,0.015-0.003,0.021-0.003c0,0,0,0,0.002-0.001
	c0.018-0.001,0.026-0.003,0.045-0.006c0.002,0,0.002,0,0.004,0c0.01,0,0.012-0.002,0.021-0.003c0,0,0.002,0,0.004,0
	c0.008-0.001,0.016-0.002,0.021-0.002c0,0,0.003,0,0.005,0c0.009-0.001,0.013-0.002,0.021-0.002h0.003
	c0.016-0.003,0.029-0.005,0.047-0.007c0,0,0,0,0.002,0c0.008,0,0.014-0.002,0.021-0.003c0,0,0.002,0,0.004,0
	c0.009-0.001,0.011-0.002,0.019-0.002c0.002,0,0.004,0,0.004,0c0.011-0.002,0.015-0.002,0.021-0.002c0,0,0.002,0,0.002-0.001
	c0.009-0.001,0.015-0.001,0.021-0.002c0,0,0.002,0,0.004-0.001c0.008,0,0.016-0.001,0.021-0.002c0,0,0,0,0.002,0
	c0.008,0,0.012-0.001,0.021-0.002c0,0,0.002,0,0.004,0c0.006-0.001,0.013-0.003,0.019-0.003c0.002,0,0.004,0,0.006,0
	c0.011-0.002,0.013-0.002,0.021-0.003c0.002,0,0.004,0,0.004-0.001c0.023-0.002,0.046-0.005,0.068-0.008c0.002,0,0.002,0,0.002,0
	c0.008-0.002,0.014-0.002,0.021-0.003c0,0,0.002,0,0.004-0.001c0.008,0,0.012,0,0.021-0.002h0.002c0.01,0,0.017-0.002,0.021-0.002
	l0,0c0.019-0.002,0.031-0.005,0.047-0.007l0,0c0.011,0,0.017-0.001,0.021-0.003h0.002c0.011,0,0.015-0.002,0.021-0.002
	c0.002,0,0.002,0,0.002,0c0.008-0.002,0.016-0.002,0.022-0.003c0.021-0.003,0.045-0.005,0.067-0.009h0.002
	c0.008,0,0.015,0,0.021-0.003h0.002c0.011,0,0.017-0.001,0.021-0.002h0.004c0.021-0.003,0.045-0.007,0.066-0.01
	c0.002,0,0.002,0,0.002,0c0.008-0.002,0.012-0.002,0.021-0.002c0-0.001,0.002-0.001,0.004-0.001
	c0.008-0.001,0.012-0.001,0.021-0.003l0,0c0.022-0.002,0.047-0.006,0.069-0.009l0,0c0.01-0.001,0.015-0.002,0.021-0.002h0.002
	c0.01-0.003,0.016-0.003,0.021-0.004c0.003,0,0.003,0,0.003-0.001c0.03-0.003,0.062-0.007,0.093-0.011c0.002,0,0.002,0,0.002,0
	c0.008-0.002,0.016-0.002,0.021-0.003h0.002c0.031-0.005,0.062-0.009,0.094-0.013h0.002c0.009-0.001,0.015-0.002,0.021-0.003
	c0,0,0,0,0.002,0c0.03-0.005,0.062-0.008,0.092-0.012h0.003c0.008-0.003,0.018-0.003,0.021-0.005
	c0.041-0.005,0.076-0.01,0.117-0.016l0,0c0.049-0.007,0.095-0.013,0.145-0.019c0.029-0.005,0.062-0.009,0.095-0.015
	c0.892-0.108,1.773-0.24,2.653-0.395l-0.34-1.973C258.879,810.719,255.561,811,252.25,811z"/>
<path fill="#E1E1E1" d="M271.688,807.664l0.67,1.884c1.474-0.521,2.912-1.101,4.326-1.729l0,0c0.043-0.021,0.084-0.038,0.127-0.062
	v-0.001c0.006-0.003,0.015-0.005,0.02-0.007c0.001-0.001,0.003-0.002,0.005-0.002c0.004-0.002,0.009-0.004,0.019-0.007
	c0-0.001,0.002-0.001,0.004-0.002c0.004-0.002,0.01-0.005,0.015-0.009c0.002,0,0.002,0,0.004-0.005
	c0.005-0.002,0.011-0.004,0.015-0.006l0.004-0.002c0.021-0.01,0.043-0.02,0.066-0.028c0.002,0,0.003,0,0.005-0.003
	c0.005-0.003,0.009-0.004,0.013-0.006c0.002-0.002,0.004-0.002,0.009-0.004s0.009-0.004,0.014-0.006
	c0.003-0.001,0.005-0.002,0.008-0.004c0.003-0.001,0.009-0.002,0.015-0.004c0.004-0.002,0.006-0.002,0.01-0.004
	s0.006-0.004,0.01-0.006c0.004-0.001,0.007-0.003,0.012-0.009c0.002-0.002,0.004-0.002,0.008-0.004s0.014-0.006,0.018-0.008
	c0.003-0.001,0.005-0.002,0.008-0.002c0.006-0.003,0.014-0.006,0.02-0.008c0.002-0.002,0.004-0.002,0.006-0.004
	c0.006-0.002,0.01-0.003,0.016-0.006c0.002,0,0.004-0.004,0.006-0.004c0.006-0.005,0.01-0.007,0.017-0.011
	c0,0,0.002-0.001,0.004-0.002s0.014-0.005,0.016-0.006c0.003-0.002,0.005-0.002,0.007-0.003c0.006-0.003,0.012-0.005,0.018-0.007
	c0.002-0.001,0.004-0.002,0.006-0.002c0.008-0.004,0.01-0.005,0.018-0.008c0-0.001,0-0.001,0.002-0.003
	c0.021-0.013,0.041-0.021,0.062-0.026c0.003,0,0.003-0.001,0.003-0.001c0.008-0.003,0.013-0.005,0.02-0.009
	c0.002,0,0.002-0.001,0.004-0.002c0.008-0.002,0.012-0.005,0.02-0.009c0.002-0.002,0.002-0.002,0.004-0.002
	c0.008-0.006,0.012-0.008,0.018-0.011c0-0.001,0.002-0.001,0.002-0.001c1.486-0.684,2.939-1.428,4.357-2.227l-0.982-1.742
	C277.816,805.181,274.788,806.561,271.688,807.664z"/>
<path fill="#E1E1E1" d="M194.25,753c0-31.981,26.019-58,58-58c31.98,0,58,26.019,58,58h2c0-33.137-26.864-60-60-60s-60,26.863-60,60
	H194.25z"/>
<rect x="332.25" y="870" fill="#E1E1E1" width="5" height="2"/>
<rect x="332.25" y="863" fill="#E1E1E1" width="5" height="2"/>
<rect x="332.25" y="831" fill="#E1E1E1" width="5" height="2"/>
<rect x="332.25" y="799" fill="#E1E1E1" width="5" height="2"/>
<rect x="167.25" y="870" fill="#E1E1E1" width="5" height="2"/>
<rect x="167.25" y="863" fill="#E1E1E1" width="5" height="2"/>
<rect x="167.25" y="831" fill="#E1E1E1" width="5" height="2"/>
<rect x="167.25" y="799" fill="#E1E1E1" width="5" height="2"/>
<path fill="#E1E1E1" d="M34,942V802c11.906-28.01,29.115-53.166,50.806-74.773c21.713-21.629,46.996-38.604,75.149-50.471
	c29.146-12.279,60.107-18.506,92.024-18.506c31.917,0,62.878,6.227,92.024,18.506c28.151,11.861,53.438,28.842,75.148,50.471
	C440.843,748.834,458.094,773.99,470,802v140h2V802c-36.029-85.61-120.995-145.75-220.021-145.75S68.034,716.39,32.005,802H32v140
	H34z"/>
</svg>
